<svg width="570" height="357" fill="none" xmlns="http://www.w3.org/2000/svg"><path stroke="#ECECEC" d="M100.5 1h117v297h-117zM217.5 1h117v297h-117zM334.5 1h117v297h-117zM451.5 1h117v297h-117z"/><path stroke="#ECECEC" d="M100.5 76h469v74.25h-469zM100.5 151h469v74.25h-469z"/><g opacity=".24" clip-path="url(#a)"><path d="M551.964 96.76c9.018 0 9.018-40.235 18.036-40.235V340.5H-61.254v-26.763c9.77 0 9.018 14.801 18.036 14.801s9.018-42.031 18.036-42.031 7.515 12.933 18.036 12.933c10.52 0 7.515 24.212 18.036 24.212 10.52 0 8.266-9.196 18.035-9.196 9.77 0 7.891-43.827 18.036-43.827 10.145 0 7.515 14.298 18.036 14.298s8.642 19.686 18.036 19.686c9.394 0 7.89-65.381 18.036-65.381 10.145 0 9.018 22.632 18.036 22.632 9.017 0 7.515-31.685 18.035-31.685 10.521 0 8.267 20.261 18.036 20.261 9.77 0 8.267-82.839 18.036-82.839 9.769 0 7.891 23.062 18.036 23.062 10.145 0 7.515 15.232 18.036 15.232s7.89-39.516 18.035-39.516c10.146 0 7.515 19.399 18.036 19.399s8.642-31.972 18.036-31.972c9.394 0 8.267-53.454 18.036-53.454 9.769 0 8.266 89.449 18.036 89.449 9.769 0 8.642-62.65 18.036-62.65 9.393 0 7.514 27.445 18.035 27.445s8.267 24.644 18.036 24.644c9.77 0 8.642-40.809 18.036-40.809 9.394 0 8.642 38.797 18.036 38.797 9.393 0 8.266-17.243 18.036-17.243 9.769 0 8.266-35.564 18.035-35.564 9.77 0 8.267 14.225 18.036 14.225 9.77 0 9.018-51.945 18.036-51.945s7.515 71.2 18.036 71.2 7.891-48.353 18.036-48.353c10.145 0 8.642 19.902 18.036 19.902 9.393 0 8.642-49.574 18.035-49.574 9.394 0 9.018 16.884 18.036 16.884Z" fill="url(#b)"/></g><g clip-path="url(#c)"><path d="M570 56.525c-9.018 0-9.018 40.235-18.036 40.235s-8.642-16.884-18.036-16.884c-9.393 0-8.642 49.574-18.035 49.574-9.394 0-7.891-19.902-18.036-19.902-10.145 0-7.515 48.353-18.036 48.353s-9.018-71.2-18.036-71.2-8.266 51.945-18.036 51.945c-9.769 0-8.266-14.225-18.036-14.225-9.769 0-8.266 35.564-18.035 35.564-9.77 0-8.643 17.243-18.036 17.243-9.394 0-8.642-38.797-18.036-38.797-9.394 0-8.266 40.809-18.036 40.809-9.769 0-7.515-24.644-18.036-24.644s-8.642-27.445-18.035-27.445c-9.394 0-8.267 62.65-18.036 62.65-9.77 0-8.267-89.449-18.036-89.449-9.769 0-8.642 53.454-18.036 53.454-9.394 0-7.515 31.972-18.036 31.972s-7.89-19.399-18.036-19.399c-10.145 0-7.514 39.516-18.035 39.516s-7.891-15.232-18.036-15.232c-10.145 0-8.267-23.062-18.036-23.062-9.769 0-8.266 82.839-18.036 82.839-9.769 0-7.515-20.261-18.036-20.261s-9.018 31.685-18.035 31.685c-9.018 0-7.891-22.632-18.036-22.632-10.145 0-8.642 65.381-18.036 65.381-9.394 0-7.515-19.686-18.036-19.686-10.52 0-7.89-14.298-18.036-14.298-10.145 0-8.266 43.827-18.035 43.827-9.77 0-7.515 9.196-18.036 9.196S3.375 299.44-7.146 299.44s-9.018-12.933-18.036-12.933-9.018 42.031-18.036 42.031-8.266-14.801-18.036-14.801" stroke="#7B61FF" stroke-width="2"/></g><rect x="281" y="77.491" width="6" height="6" rx=".751" transform="rotate(45 281 77.491)" fill="#336EE1"/><rect x="239" y="42" width="83" height="40" rx="2.254" fill="#336EE1"/><path d="M261.89 58.968h-1.236c-.336 0-.588-.096-.756-.288a.993.993 0 0 1-.252-.696v-.852a3.506 3.506 0 0 1-1.308-.384 2.995 2.995 0 0 1-.996-.852 4.22 4.22 0 0 1-.636-1.32 6.616 6.616 0 0 1-.216-1.764c0-.704.084-1.324.252-1.86.168-.536.404-.988.708-1.356a2.977 2.977 0 0 1 1.116-.828c.44-.192.932-.288 1.476-.288.536 0 1.024.096 1.464.288.44.184.812.46 1.116.828.312.368.552.82.72 1.356.168.536.252 1.156.252 1.86 0 1.288-.268 2.296-.804 3.024-.536.72-1.264 1.144-2.184 1.272v1.02h1.284v.84Zm-1.848-2.724c.36 0 .692-.064.996-.192.304-.128.564-.312.78-.552.224-.24.396-.528.516-.864.12-.336.18-.712.18-1.128v-1.392c0-.416-.06-.792-.18-1.128a2.462 2.462 0 0 0-.516-.864 2.166 2.166 0 0 0-.78-.552 2.54 2.54 0 0 0-.996-.192c-.36 0-.692.064-.996.192a2.283 2.283 0 0 0-.792.552c-.216.24-.384.528-.504.864-.12.336-.18.712-.18 1.128v1.392c0 .416.06.792.18 1.128.12.336.288.624.504.864.224.24.488.424.792.552.304.128.636.192.996.192Zm10.944.756h-5.496v-1.032l2.736-2.52c.392-.36.72-.74.984-1.14.264-.408.396-.816.396-1.224v-.144c0-.464-.128-.84-.384-1.128-.256-.288-.644-.432-1.164-.432-.256 0-.48.036-.672.108-.192.072-.36.172-.504.3-.136.128-.252.28-.348.456-.088.168-.16.352-.216.552l-.9-.348c.08-.248.188-.488.324-.72.144-.24.32-.452.528-.636a2.58 2.58 0 0 1 .768-.444c.304-.112.66-.168 1.068-.168.408 0 .772.06 1.092.18.32.12.588.288.804.504.216.216.38.472.492.768.12.296.18.624.18.984 0 .328-.048.632-.144.912-.088.28-.212.548-.372.804-.16.248-.356.492-.588.732-.224.24-.468.48-.732.72l-2.256 2.028h4.404V57Zm10.633 0h-5.496v-1.032l2.736-2.52c.392-.36.72-.74.984-1.14.264-.408.396-.816.396-1.224v-.144c0-.464-.128-.84-.384-1.128-.256-.288-.644-.432-1.164-.432-.256 0-.48.036-.672.108-.192.072-.36.172-.504.3-.136.128-.252.28-.348.456-.088.168-.16.352-.216.552l-.9-.348c.08-.248.188-.488.324-.72.144-.24.32-.452.528-.636a2.58 2.58 0 0 1 .768-.444c.304-.112.66-.168 1.068-.168.408 0 .772.06 1.092.18.32.12.588.288.804.504.216.216.38.472.492.768.12.296.18.624.18.984 0 .328-.048.632-.144.912-.088.28-.212.548-.372.804-.16.248-.356.492-.588.732-.224.24-.468.48-.732.72l-2.256 2.028h4.404V57Zm4.7.144c-1 0-1.732-.38-2.196-1.14-.456-.76-.684-1.824-.684-3.192s.228-2.432.684-3.192c.464-.76 1.196-1.14 2.196-1.14 1 0 1.728.38 2.184 1.14.464.76.696 1.824.696 3.192s-.232 2.432-.696 3.192c-.456.76-1.184 1.14-2.184 1.14Zm0-.876c.328 0 .608-.068.84-.204a1.56 1.56 0 0 0 .564-.576c.144-.248.248-.54.312-.876.072-.336.108-.708.108-1.116v-1.368c0-.408-.036-.78-.108-1.116a2.762 2.762 0 0 0-.312-.876 1.56 1.56 0 0 0-.564-.576c-.232-.136-.512-.204-.84-.204-.328 0-.608.068-.84.204a1.56 1.56 0 0 0-.564.576c-.144.248-.252.54-.324.876a5.982 5.982 0 0 0-.096 1.116v1.368c0 .408.032.78.096 1.116.072.336.18.628.324.876.144.248.332.44.564.576.232.136.512.204.84.204Zm4.952.732v-.888h2.34v-6.744h-.084l-2.112 1.968-.588-.636 2.22-2.076h1.572v7.488h2.16V57h-5.508Zm8.539 0 3.204-7.512h-3.576v1.56h-.9v-2.424h5.496v.888L300.89 57h-1.08Zm-49.612 16.984V73c-.608-.04-1.124-.188-1.548-.444a4.04 4.04 0 0 1-1.068-.984l.708-.636c.256.344.536.62.84.828.312.2.672.328 1.08.384v-3.084c-.824-.184-1.428-.452-1.812-.804-.376-.36-.564-.852-.564-1.476 0-.32.056-.604.168-.852a2.01 2.01 0 0 1 .492-.66c.208-.184.456-.328.744-.432.288-.112.608-.184.96-.216v-.984h.744v.972c.544.048 1.012.188 1.404.42.4.224.744.536 1.032.936l-.732.552c-.2-.28-.44-.508-.72-.684a2.427 2.427 0 0 0-.996-.36v2.808l.108.024c.832.184 1.436.456 1.812.816.384.352.576.844.576 1.476 0 .688-.224 1.244-.672 1.668-.44.416-1.044.66-1.812.732v.984h-.744Zm2.28-3.324c0-.408-.12-.72-.36-.936-.232-.216-.628-.392-1.188-.528v2.952c.48-.064.856-.224 1.128-.48.28-.264.42-.6.42-1.008Zm-3.696-3.948c0 .408.116.716.348.924.24.2.6.364 1.08.492v-2.652c-.432.056-.78.188-1.044.396-.256.208-.384.488-.384.84Zm11.624-1.2h-3.672l-.24 3.192h.084c.2-.28.424-.504.672-.672.256-.168.604-.252 1.044-.252.36 0 .692.06.996.18.304.12.568.292.792.516.224.216.396.484.516.804.128.32.192.684.192 1.092 0 .408-.064.784-.192 1.128a2.464 2.464 0 0 1-.564.876c-.24.24-.536.428-.888.564a3.18 3.18 0 0 1-1.176.204c-.352 0-.664-.04-.936-.12-.264-.08-.5-.188-.708-.324a3.103 3.103 0 0 1-.552-.456 5.284 5.284 0 0 1-.42-.528l.756-.576c.104.168.212.32.324.456.12.136.248.252.384.348.144.096.308.172.492.228.184.048.404.072.66.072.576 0 1.012-.152 1.308-.456.296-.304.444-.732.444-1.284v-.12c0-.552-.148-.98-.444-1.284-.296-.304-.732-.456-1.308-.456-.384 0-.688.072-.912.216-.216.136-.412.3-.588.492l-.852-.12.3-4.608h4.488v.888Zm3.152 6.084c.256 0 .44.068.552.204.12.128.18.296.18.504v.168c0 .328-.096.688-.288 1.08-.192.4-.46.748-.804 1.044h-.804c.24-.256.432-.5.576-.732a2.21 2.21 0 0 0 .324-.756.602.602 0 0 1-.36-.228.739.739 0 0 1-.108-.408v-.168c0-.208.056-.376.168-.504.12-.136.308-.204.564-.204ZM269.996 73v-1.644h-4.044v-.888l3.504-5.844h1.5v5.892h1.212v.84h-1.212V73h-.96Zm-3.096-2.484h3.096v-5.112h-.06l-3.036 5.112Zm12.488-2.82c0 .624-.092 1.212-.276 1.764a6.661 6.661 0 0 1-.72 1.5 7.178 7.178 0 0 1-.96 1.2 6.617 6.617 0 0 1-1.032.84h-1.296c.448-.328.848-.648 1.2-.96.352-.312.66-.636.924-.972.264-.344.488-.708.672-1.092a6.55 6.55 0 0 0 .444-1.32l-.06-.024c-.2.344-.46.632-.78.864-.312.224-.724.336-1.236.336-.36 0-.692-.06-.996-.18a2.18 2.18 0 0 1-.78-.516 2.524 2.524 0 0 1-.516-.804c-.12-.32-.18-.68-.18-1.08 0-.408.064-.78.192-1.116.136-.344.324-.636.564-.876.248-.248.54-.44.876-.576a3.11 3.11 0 0 1 1.152-.204c.432 0 .82.076 1.164.228.352.144.648.356.888.636.248.272.436.608.564 1.008.128.4.192.848.192 1.344Zm-2.796 1.284c.552 0 .98-.152 1.284-.456.312-.304.468-.74.468-1.308v-.096c0-.568-.156-1.004-.468-1.308-.304-.304-.732-.456-1.284-.456s-.984.152-1.296.456c-.304.304-.456.74-.456 1.308v.096c0 .568.152 1.004.456 1.308.312.304.744.456 1.296.456ZM286.884 73h-5.496v-1.032l2.736-2.52c.392-.36.72-.74.984-1.14.264-.408.396-.816.396-1.224v-.144c0-.464-.128-.84-.384-1.128-.256-.288-.644-.432-1.164-.432-.256 0-.48.036-.672.108-.192.072-.36.172-.504.3-.136.128-.252.28-.348.456-.088.168-.16.352-.216.552l-.9-.348c.08-.248.188-.488.324-.72.144-.24.32-.452.528-.636a2.58 2.58 0 0 1 .768-.444c.304-.112.66-.168 1.068-.168.408 0 .772.06 1.092.18.32.12.588.288.804.504.216.216.38.472.492.768.12.296.18.624.18.984 0 .328-.048.632-.144.912-.088.28-.212.548-.372.804-.16.248-.356.492-.588.732-.224.24-.468.48-.732.72l-2.256 2.028h4.404V73Zm2.732-1.404c.256 0 .44.068.552.204.12.128.18.296.18.504v.168c0 .328-.096.688-.288 1.08-.192.4-.46.748-.804 1.044h-.804c.24-.256.432-.5.576-.732a2.21 2.21 0 0 0 .324-.756.602.602 0 0 1-.36-.228.739.739 0 0 1-.108-.408v-.168c0-.208.056-.376.168-.504.12-.136.308-.204.564-.204Zm5.538 1.548c-.48 0-.9-.06-1.26-.18-.36-.128-.664-.3-.912-.516a2.192 2.192 0 0 1-.552-.768 2.53 2.53 0 0 1-.18-.96c0-.576.156-1.032.468-1.368.312-.336.72-.572 1.224-.708v-.096a2.234 2.234 0 0 1-1.056-.732c-.256-.344-.384-.756-.384-1.236 0-.64.232-1.148.696-1.524.464-.384 1.116-.576 1.956-.576.84 0 1.492.192 1.956.576.464.376.696.884.696 1.524 0 .48-.132.892-.396 1.236-.256.336-.604.58-1.044.732v.096c.504.136.912.372 1.224.708.312.336.468.792.468 1.368 0 .344-.064.664-.192.96-.12.296-.304.552-.552.768-.24.216-.54.388-.9.516-.36.12-.78.18-1.26.18Zm0-.876c.584 0 1.036-.128 1.356-.384.32-.264.48-.636.48-1.116v-.252c0-.48-.16-.848-.48-1.104-.32-.264-.772-.396-1.356-.396-.584 0-1.036.132-1.356.396-.32.256-.48.624-.48 1.104v.252c0 .48.16.852.48 1.116.32.256.772.384 1.356.384Zm0-4.092c.528 0 .928-.112 1.2-.336.272-.224.408-.552.408-.984v-.18c0-.432-.136-.76-.408-.984-.272-.224-.672-.336-1.2-.336-.528 0-.928.112-1.2.336-.272.224-.408.552-.408.984v.18c0 .432.136.76.408.984.272.224.672.336 1.2.336ZM303.55 73v-1.644h-4.044v-.888l3.504-5.844h1.5v5.892h1.212v.84h-1.212V73h-.96Zm-3.096-2.484h3.096v-5.112h-.06l-3.036 5.112Zm9.692 2.628c-1 0-1.732-.38-2.196-1.14-.456-.76-.684-1.824-.684-3.192s.228-2.432.684-3.192c.464-.76 1.196-1.14 2.196-1.14 1 0 1.728.38 2.184 1.14.464.76.696 1.824.696 3.192s-.232 2.432-.696 3.192c-.456.76-1.184 1.14-2.184 1.14Zm0-.876c.328 0 .608-.068.84-.204a1.56 1.56 0 0 0 .564-.576c.144-.248.248-.54.312-.876.072-.336.108-.708.108-1.116v-1.368c0-.408-.036-.78-.108-1.116a2.762 2.762 0 0 0-.312-.876 1.56 1.56 0 0 0-.564-.576c-.232-.136-.512-.204-.84-.204-.328 0-.608.068-.84.204a1.56 1.56 0 0 0-.564.576c-.144.248-.252.54-.324.876a5.982 5.982 0 0 0-.096 1.116v1.368c0 .408.032.78.096 1.116.072.336.18.628.324.876.144.248.332.44.564.576.232.136.512.204.84.204Z" fill="#fff"/><circle cx="281" cy="102" r="3.5" fill="#fff" stroke="#336EE1"/><path d="M117.299 352.5h-5.59v-.779l2.953-3.282c.438-.496.738-.898.902-1.207.168-.312.252-.634.252-.966 0-.446-.134-.811-.404-1.096-.269-.285-.629-.428-1.078-.428-.539 0-.959.154-1.26.463-.297.305-.445.731-.445 1.277h-1.084c0-.785.252-1.42.756-1.904.508-.484 1.185-.726 2.033-.726.793 0 1.42.209 1.881.627.461.414.691.966.691 1.658 0 .84-.535 1.84-1.605 3l-2.285 2.478h4.283v.885Zm6.498-3.639c0 1.27-.217 2.213-.651 2.83-.433.618-1.111.926-2.033.926-.91 0-1.584-.301-2.021-.902-.438-.606-.664-1.508-.68-2.707v-1.447c0-1.254.217-2.186.65-2.795.434-.61 1.114-.914 2.04-.914.918 0 1.593.294 2.027.884.433.586.656 1.493.668 2.719v1.406Zm-1.084-1.482c0-.918-.129-1.586-.387-2.004-.258-.422-.666-.633-1.224-.633-.555 0-.959.209-1.213.627-.254.418-.385 1.061-.393 1.928v1.734c0 .922.133 1.604.399 2.045.269.438.675.656 1.218.656.535 0 .932-.207 1.19-.621.261-.414.398-1.066.41-1.957v-1.775Zm6.035 5.121h-1.09v-7.225l-2.185.803v-.984l3.105-1.166h.17v8.572Zm3.674-4.277.433-4.254h4.372v1.002h-3.452l-.257 2.326a2.752 2.752 0 0 1 1.423-.369c.778 0 1.395.258 1.852.773.457.512.686 1.205.686 2.08 0 .879-.239 1.573-.715 2.08-.473.504-1.135.756-1.987.756-.754 0-1.369-.209-1.845-.627-.477-.418-.748-.996-.815-1.734h1.026c.066.488.24.857.521 1.107.281.246.652.369 1.113.369.504 0 .899-.171 1.184-.515.289-.344.434-.819.434-1.424 0-.57-.157-1.027-.469-1.371-.309-.348-.721-.522-1.237-.522-.472 0-.843.104-1.113.311l-.287.234-.867-.222ZM201.499 352.5h-5.59v-.779l2.953-3.282c.438-.496.738-.898.902-1.207.168-.312.252-.634.252-.966 0-.446-.134-.811-.404-1.096-.269-.285-.629-.428-1.078-.428-.539 0-.959.154-1.26.463-.297.305-.445.731-.445 1.277h-1.084c0-.785.252-1.42.756-1.904.508-.484 1.185-.726 2.033-.726.793 0 1.42.209 1.881.627.461.414.691.966.691 1.658 0 .84-.535 1.84-1.605 3l-2.285 2.478h4.283v.885Zm6.498-3.639c0 1.27-.217 2.213-.651 2.83-.433.618-1.111.926-2.033.926-.91 0-1.584-.301-2.021-.902-.438-.606-.664-1.508-.68-2.707v-1.447c0-1.254.217-2.186.65-2.795.434-.61 1.114-.914 2.04-.914.917 0 1.593.294 2.027.884.433.586.656 1.493.668 2.719v1.406Zm-1.084-1.482c0-.918-.129-1.586-.387-2.004-.258-.422-.666-.633-1.224-.633-.555 0-.959.209-1.213.627-.254.418-.385 1.061-.393 1.928v1.734c0 .922.133 1.604.398 2.045.27.438.676.656 1.219.656.535 0 .932-.207 1.19-.621.261-.414.398-1.066.41-1.957v-1.775Zm6.035 5.121h-1.09v-7.225l-2.185.803v-.984l3.105-1.166h.17v8.572Zm7.43-8.537v.92h-.2c-.843.015-1.515.265-2.015.75-.5.484-.789 1.166-.867 2.045.449-.516 1.062-.774 1.839-.774.743 0 1.334.262 1.776.785.445.524.668 1.2.668 2.028 0 .879-.24 1.582-.721 2.109-.476.528-1.117.791-1.922.791-.816 0-1.478-.312-1.986-.937-.508-.629-.762-1.438-.762-2.426v-.416c0-1.57.334-2.77 1.002-3.598.672-.832 1.67-1.258 2.994-1.277h.194Zm-1.424 3.844a1.73 1.73 0 0 0-1.026.334 1.739 1.739 0 0 0-.65.838v.398c0 .703.158 1.269.475 1.699.316.43.711.645 1.183.645.489 0 .871-.18 1.149-.539.281-.36.422-.83.422-1.412 0-.586-.143-1.059-.428-1.418a1.349 1.349 0 0 0-1.125-.545ZM285.699 352.5h-5.59v-.779l2.953-3.282c.438-.496.738-.898.902-1.207.168-.312.252-.634.252-.966 0-.446-.134-.811-.404-1.096-.27-.285-.629-.428-1.078-.428-.539 0-.959.154-1.26.463-.297.305-.445.731-.445 1.277h-1.084c0-.785.252-1.42.756-1.904.507-.484 1.185-.726 2.033-.726.793 0 1.42.209 1.881.627.461.414.691.966.691 1.658 0 .84-.535 1.84-1.605 3l-2.285 2.478h4.283v.885Zm6.498-3.639c0 1.27-.217 2.213-.651 2.83-.433.618-1.111.926-2.033.926-.91 0-1.584-.301-2.021-.902-.438-.606-.664-1.508-.68-2.707v-1.447c0-1.254.217-2.186.65-2.795.434-.61 1.114-.914 2.039-.914.918 0 1.594.294 2.028.884.433.586.656 1.493.668 2.719v1.406Zm-1.084-1.482c0-.918-.129-1.586-.387-2.004-.258-.422-.666-.633-1.225-.633-.554 0-.959.209-1.212.627-.254.418-.385 1.061-.393 1.928v1.734c0 .922.133 1.604.398 2.045.27.438.676.656 1.219.656.535 0 .932-.207 1.19-.621.261-.414.398-1.066.41-1.957v-1.775Zm6.035 5.121h-1.09v-7.225l-2.185.803v-.984l3.105-1.166h.17v8.572Zm8.684-7.922-3.534 7.922h-1.136l3.521-7.641h-4.617v-.89h5.766v.609ZM369.899 352.5h-5.59v-.779l2.953-3.282c.438-.496.738-.898.903-1.207.168-.312.252-.634.252-.966 0-.446-.135-.811-.405-1.096-.269-.285-.629-.428-1.078-.428-.539 0-.959.154-1.26.463-.297.305-.445.731-.445 1.277h-1.084c0-.785.252-1.42.756-1.904.508-.484 1.185-.726 2.033-.726.793 0 1.42.209 1.881.627.461.414.691.966.691 1.658 0 .84-.535 1.84-1.605 3l-2.285 2.478h4.283v.885Zm6.498-3.639c0 1.27-.217 2.213-.65 2.83-.434.618-1.112.926-2.034.926-.91 0-1.584-.301-2.021-.902-.438-.606-.664-1.508-.68-2.707v-1.447c0-1.254.217-2.186.651-2.795.433-.61 1.113-.914 2.039-.914.918 0 1.593.294 2.027.884.434.586.656 1.493.668 2.719v1.406Zm-1.084-1.482c0-.918-.129-1.586-.387-2.004-.258-.422-.666-.633-1.224-.633-.555 0-.959.209-1.213.627-.254.418-.385 1.061-.393 1.928v1.734c0 .922.133 1.604.399 2.045.269.438.675.656 1.218.656.536 0 .932-.207 1.19-.621.262-.414.398-1.066.41-1.957v-1.775Zm6.035 5.121h-1.09v-7.225l-2.185.803v-.984l3.105-1.166h.17v8.572Zm8.35-6.305c0 .426-.114.805-.34 1.137a2.267 2.267 0 0 1-.908.779c.445.192.797.471 1.054.838.262.367.393.783.393 1.248 0 .739-.25 1.326-.75 1.764-.496.437-1.15.656-1.963.656-.82 0-1.478-.219-1.975-.656-.492-.441-.738-1.029-.738-1.764 0-.461.125-.877.375-1.248a2.379 2.379 0 0 1 1.049-.844 2.225 2.225 0 0 1-.896-.779 2.008 2.008 0 0 1-.329-1.131c0-.718.231-1.289.692-1.711.461-.422 1.068-.632 1.822-.632.75 0 1.356.21 1.816.632.465.422.698.993.698 1.711Zm-.885 3.979c0-.477-.152-.865-.457-1.166-.301-.301-.695-.451-1.184-.451-.488 0-.88.148-1.177.445-.293.297-.44.687-.44 1.172 0 .484.143.865.428 1.142.289.278.689.416 1.201.416.508 0 .906-.138 1.195-.416.289-.281.434-.662.434-1.142Zm-1.629-5.432c-.426 0-.771.133-1.037.399-.262.261-.393.619-.393 1.072 0 .433.129.785.387 1.055.262.265.609.398 1.043.398.434 0 .779-.133 1.037-.398.262-.27.393-.622.393-1.055 0-.434-.135-.787-.405-1.061-.269-.273-.611-.41-1.025-.41ZM454.099 352.5h-5.59v-.779l2.953-3.282c.438-.496.738-.898.903-1.207.167-.312.251-.634.251-.966 0-.446-.134-.811-.404-1.096-.269-.285-.629-.428-1.078-.428-.539 0-.959.154-1.26.463-.297.305-.445.731-.445 1.277h-1.084c0-.785.252-1.42.756-1.904.508-.484 1.185-.726 2.033-.726.793 0 1.42.209 1.881.627.461.414.691.966.691 1.658 0 .84-.535 1.84-1.605 3l-2.285 2.478h4.283v.885Zm6.498-3.639c0 1.27-.217 2.213-.65 2.83-.434.618-1.112.926-2.034.926-.91 0-1.584-.301-2.021-.902-.438-.606-.664-1.508-.68-2.707v-1.447c0-1.254.217-2.186.651-2.795.433-.61 1.113-.914 2.039-.914.918 0 1.593.294 2.027.884.434.586.656 1.493.668 2.719v1.406Zm-1.084-1.482c0-.918-.129-1.586-.387-2.004-.258-.422-.666-.633-1.224-.633-.555 0-.959.209-1.213.627-.254.418-.385 1.061-.393 1.928v1.734c0 .922.133 1.604.399 2.045.269.438.675.656 1.218.656.535 0 .932-.207 1.19-.621.262-.414.398-1.066.41-1.957v-1.775Zm6.035 5.121h-1.09v-7.225l-2.185.803v-.984l3.105-1.166h.17v8.572Zm7.33-3.75c-.226.27-.498.486-.814.65a2.19 2.19 0 0 1-1.032.246c-.492 0-.921-.121-1.289-.363a2.371 2.371 0 0 1-.843-1.019 3.496 3.496 0 0 1-.299-1.459c0-.571.107-1.084.322-1.541.219-.457.527-.807.926-1.049.398-.242.863-.363 1.394-.363.844 0 1.508.316 1.993.949.488.629.732 1.488.732 2.578v.316c0 1.66-.328 2.873-.984 3.639-.657.762-1.647 1.152-2.971 1.172h-.211v-.914h.229c.894-.016 1.582-.248 2.062-.697.48-.454.742-1.168.785-2.145Zm-1.67 0c.364 0 .698-.111 1.002-.334.309-.223.533-.498.674-.826v-.434c0-.711-.154-1.289-.463-1.734-.308-.445-.699-.668-1.172-.668a1.39 1.39 0 0 0-1.148.551c-.289.363-.434.843-.434 1.441 0 .582.139 1.063.416 1.442a1.34 1.34 0 0 0 1.125.562ZM538.299 352.5h-5.59v-.779l2.953-3.282c.438-.496.738-.898.902-1.207.168-.312.252-.634.252-.966 0-.446-.134-.811-.404-1.096-.269-.285-.629-.428-1.078-.428-.539 0-.959.154-1.26.463-.297.305-.445.731-.445 1.277h-1.084c0-.785.252-1.42.756-1.904.508-.484 1.185-.726 2.033-.726.793 0 1.42.209 1.881.627.461.414.691.966.691 1.658 0 .84-.535 1.84-1.605 3l-2.285 2.478h4.283v.885Zm6.498-3.639c0 1.27-.217 2.213-.651 2.83-.433.618-1.111.926-2.033.926-.91 0-1.584-.301-2.021-.902-.438-.606-.664-1.508-.68-2.707v-1.447c0-1.254.217-2.186.65-2.795.434-.61 1.114-.914 2.04-.914.918 0 1.593.294 2.027.884.433.586.656 1.493.668 2.719v1.406Zm-1.084-1.482c0-.918-.129-1.586-.387-2.004-.258-.422-.666-.633-1.224-.633-.555 0-.959.209-1.213.627-.254.418-.385 1.061-.393 1.928v1.734c0 .922.133 1.604.399 2.045.269.438.675.656 1.218.656.535 0 .932-.207 1.19-.621.261-.414.398-1.066.41-1.957v-1.775Zm8.062 5.121h-5.589v-.779l2.953-3.282c.437-.496.738-.898.902-1.207.168-.312.252-.634.252-.966 0-.446-.135-.811-.404-1.096-.27-.285-.629-.428-1.078-.428-.54 0-.959.154-1.26.463-.297.305-.446.731-.446 1.277h-1.084c0-.785.252-1.42.756-1.904.508-.484 1.186-.726 2.034-.726.793 0 1.419.209 1.88.627.461.414.692.966.692 1.658 0 .84-.535 1.84-1.606 3l-2.285 2.478h4.283v.885Zm6.498-3.639c0 1.27-.216 2.213-.65 2.83-.434.618-1.111.926-2.033.926-.91 0-1.584-.301-2.022-.902-.437-.606-.664-1.508-.679-2.707v-1.447c0-1.254.216-2.186.65-2.795.434-.61 1.113-.914 2.039-.914.918 0 1.594.294 2.027.884.434.586.657 1.493.668 2.719v1.406Zm-1.084-1.482c0-.918-.128-1.586-.386-2.004-.258-.422-.666-.633-1.225-.633-.555 0-.959.209-1.213.627-.254.418-.385 1.061-.392 1.928v1.734c0 .922.132 1.604.398 2.045.27.438.676.656 1.219.656.535 0 .931-.207 1.189-.621.262-.414.399-1.066.41-1.957v-1.775ZM51.016 31.303c0-.36-.127-.662-.381-.909-.25-.246-.674-.468-1.272-.667-.832-.254-1.44-.584-1.822-.99-.379-.41-.568-.93-.568-1.56 0-.64.185-1.165.556-1.575.375-.41.889-.655 1.541-.733v-1.283h.873v1.289c.657.09 1.166.365 1.53.826.367.461.55 1.092.55 1.893h-1.078c0-.551-.13-.989-.392-1.313-.262-.324-.615-.486-1.06-.486-.466 0-.821.121-1.067.363-.246.238-.37.572-.37 1.002 0 .399.13.717.387.955.262.235.69.45 1.284.645.597.191 1.062.404 1.394.638.336.23.582.5.738.809.16.309.24.67.24 1.084 0 .66-.199 1.191-.597 1.594-.395.402-.95.64-1.664.715v1.119h-.867v-1.12c-.727-.066-1.297-.324-1.711-.773-.41-.453-.615-1.066-.615-1.84h1.083c0 .543.143.961.428 1.254.285.293.69.44 1.213.44.512 0 .914-.123 1.207-.37.293-.245.44-.582.44-1.007Zm7.94-5.725L55.421 33.5h-1.137l3.522-7.64H53.19v-.891h5.765v.61Zm2.964-.61 2.789 6.962 2.789-6.961h1.459V33.5h-1.125v-3.322l.106-3.586-2.801 6.908h-.862l-2.795-6.89.112 3.568V33.5h-1.125v-8.531h1.453ZM51.016 74.803c0-.36-.127-.662-.381-.909-.25-.246-.674-.468-1.272-.667-.832-.254-1.44-.584-1.822-.99-.379-.41-.568-.93-.568-1.56 0-.64.185-1.165.556-1.575.375-.41.889-.655 1.541-.733v-1.283h.873v1.289c.657.09 1.166.365 1.53.826.367.461.55 1.092.55 1.893h-1.078c0-.551-.13-.988-.392-1.313-.262-.324-.615-.486-1.06-.486-.466 0-.821.121-1.067.363-.246.239-.37.573-.37 1.002 0 .399.13.717.387.955.262.235.69.45 1.284.645.597.191 1.062.404 1.394.638.336.23.582.5.738.809.16.309.24.67.24 1.084 0 .66-.199 1.191-.597 1.594-.395.402-.95.64-1.664.715v1.119h-.867v-1.12c-.727-.066-1.297-.324-1.711-.773-.41-.453-.615-1.066-.615-1.84h1.083c0 .543.143.961.428 1.254.285.293.69.44 1.213.44.512 0 .914-.123 1.207-.37.293-.246.44-.582.44-1.007Zm6.685-6.34v.92h-.199c-.844.015-1.516.265-2.016.75-.5.484-.789 1.166-.867 2.045.45-.516 1.063-.774 1.84-.774.742 0 1.334.262 1.775.785.446.524.668 1.2.668 2.028 0 .879-.24 1.582-.72 2.11-.477.526-1.117.79-1.922.79-.817 0-1.479-.312-1.987-.937-.507-.63-.761-1.438-.761-2.426v-.416c0-1.57.334-2.77 1.002-3.598.671-.832 1.67-1.258 2.994-1.277h.193Zm-1.424 3.844a1.73 1.73 0 0 0-1.025.334 1.74 1.74 0 0 0-.65.837v.399c0 .703.158 1.27.474 1.7.317.429.711.644 1.184.644.488 0 .87-.18 1.148-.54.282-.359.422-.83.422-1.412 0-.585-.142-1.058-.428-1.417a1.35 1.35 0 0 0-1.125-.545Zm5.643-3.838 2.789 6.96 2.789-6.96h1.459V77h-1.125v-3.322l.106-3.586L65.136 77h-.862l-2.795-6.89.112 3.568V77h-1.125v-8.531h1.453ZM51.016 118.303c0-.36-.127-.662-.381-.908-.25-.247-.674-.469-1.272-.668-.832-.254-1.44-.584-1.822-.991-.379-.41-.568-.929-.568-1.558 0-.641.185-1.166.556-1.576.375-.411.889-.655 1.541-.733v-1.283h.873v1.289c.657.09 1.166.365 1.53.826.367.461.55 1.092.55 1.893h-1.078c0-.551-.13-.989-.392-1.313-.262-.324-.615-.486-1.06-.486-.466 0-.821.121-1.067.363-.246.238-.37.572-.37 1.002 0 .399.13.717.387.955.262.235.69.449 1.284.645.597.191 1.062.404 1.394.638.336.231.582.5.738.809.16.309.24.67.24 1.084 0 .66-.199 1.191-.597 1.594-.395.402-.95.64-1.664.715v1.119h-.867V120.6c-.727-.067-1.297-.325-1.711-.774-.41-.453-.615-1.066-.615-1.84h1.083c0 .543.143.961.428 1.254.285.293.69.44 1.213.44.512 0 .914-.123 1.207-.369.293-.247.44-.582.44-1.008Zm2.93-2.08.433-4.254h4.371v1.002h-3.451l-.258 2.326a2.754 2.754 0 0 1 1.424-.369c.777 0 1.394.258 1.851.773.457.512.686 1.205.686 2.08 0 .879-.238 1.573-.715 2.08-.472.504-1.135.756-1.986.756-.754 0-1.37-.209-1.846-.627-.477-.418-.748-.996-.814-1.734h1.025c.066.488.24.857.522 1.107.28.246.652.369 1.113.369.504 0 .898-.171 1.183-.515.29-.344.434-.819.434-1.424 0-.57-.156-1.027-.469-1.371-.308-.348-.72-.522-1.236-.522-.473 0-.844.104-1.113.311l-.288.234-.867-.222Zm7.974-4.254 2.789 6.961 2.789-6.961h1.459v8.531h-1.125v-3.322l.106-3.586-2.801 6.908h-.862l-2.795-6.891.112 3.569v3.322h-1.125v-8.531h1.453ZM51.016 161.803c0-.36-.127-.662-.381-.908-.25-.247-.674-.469-1.272-.668-.832-.254-1.44-.584-1.822-.991-.379-.41-.568-.929-.568-1.558 0-.641.185-1.166.556-1.576.375-.411.889-.655 1.541-.733v-1.283h.873v1.289c.657.09 1.166.365 1.53.826.367.461.55 1.092.55 1.893h-1.078c0-.551-.13-.989-.392-1.313-.262-.324-.615-.486-1.06-.486-.466 0-.821.121-1.067.363-.246.238-.37.572-.37 1.002 0 .399.13.717.387.955.262.235.69.449 1.284.645.597.191 1.062.404 1.394.638.336.231.582.5.738.809.16.309.24.67.24 1.084 0 .66-.199 1.191-.597 1.594-.395.402-.95.64-1.664.715v1.119h-.867V164.1c-.727-.067-1.297-.325-1.711-.774-.41-.453-.615-1.066-.615-1.84h1.083c0 .543.143.961.428 1.254.285.293.69.44 1.213.44.512 0 .914-.123 1.207-.369.293-.247.44-.582.44-1.008Zm7.007-.668h1.184v.885h-1.184V164h-1.09v-1.98H53.05v-.639l3.82-5.912h1.154v5.666Zm-3.744 0h2.655v-4.184l-.13.235-2.525 3.949Zm7.64-5.666 2.79 6.961 2.789-6.961h1.459V164h-1.125v-3.322l.106-3.586L65.136 164h-.862l-2.795-6.891.112 3.569V164h-1.125v-8.531h1.453ZM51.016 205.303c0-.36-.127-.662-.381-.908-.25-.247-.674-.469-1.272-.668-.832-.254-1.44-.584-1.822-.991-.379-.41-.568-.929-.568-1.558 0-.641.185-1.166.556-1.576.375-.411.889-.655 1.541-.733v-1.283h.873v1.289c.657.09 1.166.365 1.53.826.367.461.55 1.092.55 1.893h-1.078c0-.551-.13-.989-.392-1.313-.262-.324-.615-.486-1.06-.486-.466 0-.821.121-1.067.363-.246.238-.37.572-.37 1.002 0 .399.13.717.387.955.262.235.69.449 1.284.645.597.191 1.062.404 1.394.638.336.231.582.5.738.809.16.309.24.67.24 1.084 0 .66-.199 1.191-.597 1.594-.395.402-.95.64-1.664.715v1.119h-.867V207.6c-.727-.067-1.297-.325-1.711-.774-.41-.453-.615-1.066-.615-1.84h1.083c0 .543.143.961.428 1.254.285.293.69.44 1.213.44.512 0 .914-.123 1.207-.369.293-.247.44-.582.44-1.008Zm4.007-2.596h.815c.512-.008.914-.143 1.207-.404.293-.262.44-.615.44-1.061 0-1-.499-1.5-1.495-1.5-.468 0-.843.135-1.125.404-.277.266-.416.62-.416 1.061h-1.084c0-.676.246-1.236.738-1.682.497-.449 1.125-.673 1.887-.673.805 0 1.436.212 1.893.638.457.426.685 1.018.685 1.776 0 .371-.12.73-.363 1.078a2.162 2.162 0 0 1-.978.779c.468.148.83.395 1.084.738.257.344.386.764.386 1.26 0 .766-.25 1.373-.75 1.822-.5.45-1.15.674-1.95.674-.802 0-1.454-.217-1.958-.65-.5-.434-.75-1.006-.75-1.717h1.09c0 .449.146.809.44 1.078.292.27.685.404 1.177.404.523 0 .924-.136 1.201-.41.278-.273.416-.666.416-1.177 0-.497-.152-.877-.457-1.143-.304-.266-.744-.402-1.318-.41h-.815v-.885Zm6.897-3.738 2.789 6.961 2.789-6.961h1.459v8.531h-1.125v-3.322l.106-3.586-2.801 6.908h-.862l-2.795-6.891.112 3.569v3.322h-1.125v-8.531h1.453ZM51.016 248.803c0-.36-.127-.662-.381-.908-.25-.247-.674-.469-1.272-.668-.832-.254-1.44-.584-1.822-.991-.379-.41-.568-.929-.568-1.558 0-.641.185-1.166.556-1.576.375-.411.889-.655 1.541-.733v-1.283h.873v1.289c.657.09 1.166.365 1.53.826.367.461.55 1.092.55 1.893h-1.078c0-.551-.13-.989-.392-1.313-.262-.324-.615-.486-1.06-.486-.466 0-.821.121-1.067.363-.246.238-.37.572-.37 1.002 0 .399.13.717.387.955.262.235.69.449 1.284.645.597.191 1.062.404 1.394.638.336.231.582.5.738.809.16.309.24.67.24 1.084 0 .66-.199 1.191-.597 1.594-.395.402-.95.64-1.664.715v1.119h-.867V251.1c-.727-.067-1.297-.325-1.711-.774-.41-.453-.615-1.066-.615-1.84h1.083c0 .543.143.961.428 1.254.285.293.69.44 1.213.44.512 0 .914-.123 1.207-.369.293-.247.44-.582.44-1.008ZM59.037 251h-5.59v-.779l2.953-3.282c.438-.496.739-.898.903-1.207.168-.312.252-.634.252-.966 0-.446-.135-.811-.405-1.096-.27-.285-.628-.428-1.078-.428-.539 0-.959.154-1.26.463-.296.305-.445.731-.445 1.277h-1.084c0-.785.252-1.42.756-1.904.508-.484 1.186-.726 2.033-.726.793 0 1.42.209 1.881.627.461.414.691.966.691 1.658 0 .84-.535 1.84-1.605 3l-2.285 2.478h4.283V251Zm2.883-8.531 2.789 6.961 2.789-6.961h1.459V251h-1.125v-3.322l.106-3.586L65.136 251h-.862l-2.795-6.891.112 3.569V251h-1.125v-8.531h1.453ZM51.016 292.303c0-.36-.127-.662-.381-.908-.25-.247-.674-.469-1.272-.668-.832-.254-1.44-.584-1.822-.991-.379-.41-.568-.929-.568-1.558 0-.641.185-1.166.556-1.576.375-.411.889-.655 1.541-.733v-1.283h.873v1.289c.657.09 1.166.365 1.53.826.367.461.55 1.092.55 1.893h-1.078c0-.551-.13-.989-.392-1.313-.262-.324-.615-.486-1.06-.486-.466 0-.821.121-1.067.363-.246.238-.37.572-.37 1.002 0 .399.13.717.387.955.262.235.69.449 1.284.645.597.191 1.062.404 1.394.638.336.231.582.5.738.809.16.309.24.67.24 1.084 0 .66-.199 1.191-.597 1.594-.395.402-.95.64-1.664.715v1.119h-.867V294.6c-.727-.067-1.297-.325-1.711-.774-.41-.453-.615-1.066-.615-1.84h1.083c0 .543.143.961.428 1.254.285.293.69.44 1.213.44.512 0 .914-.123 1.207-.369.293-.247.44-.582.44-1.008Zm5.994 2.197h-1.09v-7.225l-2.186.803v-.984l3.106-1.166h.17v8.572Zm4.91-8.531 2.789 6.961 2.789-6.961h1.459v8.531h-1.125v-3.322l.106-3.586-2.801 6.908h-.862l-2.795-6.891.112 3.569v3.322h-1.125v-8.531h1.453Z" fill="#333"/><defs><clipPath id="a"><path fill="#fff" transform="matrix(-1 0 0 1 570 56.525)" d="M0 0h470v283.975H0z"/></clipPath><clipPath id="c"><path fill="#fff" transform="matrix(-1 0 0 1 570 56.39)" d="M0 0h470v284.109H0z"/></clipPath><linearGradient id="b" x1="254.373" y1="56.525" x2="254.373" y2="340.5" gradientUnits="userSpaceOnUse"><stop stop-color="#7B61FF"/><stop offset="1" stop-color="#7B61FF" stop-opacity="0"/></linearGradient></defs></svg>