<svg width="149" height="75" fill="none" xmlns="http://www.w3.org/2000/svg"><path d="M74.18 74.36C33.28 74.36 0 41.08 0 .18 0-40.72 33.28-74 74.18-74c40.9 0 74.18 33.28 74.18 74.18-.01 40.9-33.28 74.18-74.18 74.18Zm0-145.17C35.03-70.81 3.19-38.96 3.19.18c0 39.15 31.85 70.99 70.99 70.99 39.14 0 70.99-31.85 70.99-70.99 0-39.14-31.85-70.99-70.99-70.99Z" fill="#7B61FF"/><path d="M74.18 63.99C39 63.99 10.37 35.37 10.37.18c0-35.18 28.62-63.81 63.81-63.81 35.18 0 63.81 28.62 63.81 63.81-.01 35.19-28.63 63.81-63.81 63.81Zm0-124.43c-33.43 0-60.62 27.2-60.62 60.62 0 33.43 27.2 60.62 60.62 60.62S134.8 33.6 134.8.18s-27.2-60.62-60.62-60.62Z" fill="#7B61FF"/><path d="M74.18 53.62c-29.47 0-53.44-23.97-53.44-53.44s23.97-53.44 53.44-53.44S127.62-29.29 127.62.18c-.01 29.47-23.98 53.44-53.44 53.44Zm0-103.69c-27.71 0-50.25 22.54-50.25 50.25s22.54 50.26 50.25 50.26S124.43 27.9 124.43.18c0-27.71-22.54-50.25-50.25-50.25Z" fill="#7B61FF"/><path d="M74.18 43.25c-23.75 0-43.07-19.32-43.07-43.07s19.32-43.07 43.07-43.07S117.25-23.57 117.25.18 97.92 43.25 74.18 43.25Zm0-82.95C52.19-39.7 34.29-21.81 34.29.19c0 21.99 17.89 39.89 39.89 39.89S114.07 22.19 114.07.19c-.01-22-17.9-39.89-39.89-39.89Z" fill="#7B61FF"/></svg>