<svg width="470" height="462" fill="none" xmlns="http://www.w3.org/2000/svg"><path d="M309.934 303.423H284.54v99.059h25.394v-99.059ZM309.934 407.371H284.54v16.311h25.394v-16.311ZM309.934 428.582H284.54v10.054h25.394v-10.054ZM309.934 443.536H284.54v4.988h25.394v-4.988ZM318.388 303.412h-42.312l21.156-29.278 21.156 29.278ZM360.468 271.938h-25.394v130.544h25.394V271.938ZM360.468 407.371h-25.394v16.311h25.394v-16.311ZM360.468 428.582h-25.394v10.054h25.394v-10.054ZM360.468 443.536h-25.394v4.988h25.394v-4.988ZM368.932 271.937h-42.323l21.167-29.278 21.156 29.278ZM411.013 240.452h-25.394v162.019h25.394V240.452ZM411.013 407.371h-25.394v16.311h25.394v-16.311ZM411.013 428.582h-25.394v10.054h25.394v-10.054ZM411.013 443.536h-25.394v4.988h25.394v-4.988ZM419.466 240.452h-42.312l21.156-29.279 21.156 29.279ZM461.535 208.977h-25.393v193.505h25.393V208.977ZM461.535 407.371h-25.393v16.311h25.393v-16.311ZM461.535 428.582h-25.393v10.054h25.393v-10.054ZM461.535 443.536h-25.393v4.988h25.393v-4.988ZM470 208.966h-42.312l21.156-29.278L470 208.966ZM257.624 0c-45.899 0-45.976 65.278 0 65.278 45.975 0 45.975-65.278 0-65.278Z" fill="#EBEBEB"/><path d="M285.545 38.758c-2.45 11.224-11.765 20.969-27.921 20.969-38.152 0-38.097-54.176 0-54.176h.75c-35.856.662-35.679 51.968.695 51.968 14.844.012 23.683-8.575 26.476-18.76Z" fill="#DBDBDB"/><path d="M257.899 12.691a1.16 1.16 0 0 1 1.192 1.104v1.821a16.975 16.975 0 0 1 8.829 3.178c.442.32.695.585.695 1.049a1.226 1.226 0 0 1-1.291 1.104 1.292 1.292 0 0 1-.894-.31 14.843 14.843 0 0 0-7.449-2.957v12.746c7.549 1.457 10.727 4.04 10.727 8.498 0 4.812-4.414 8.222-10.628 8.41v3.542a1.19 1.19 0 0 1-2.034.843 1.19 1.19 0 0 1-.349-.843v-3.609a19.456 19.456 0 0 1-11.169-4.414 1.103 1.103 0 0 1-.552-.95 1.251 1.251 0 0 1 1.247-1.103c.326-.007.643.102.894.31a16.654 16.654 0 0 0 9.679 4.138V32.28c-7.449-1.5-10.528-4.006-10.528-8.542 0-4.535 4.414-8.089 10.429-8.232v-1.722a1.092 1.092 0 0 1 .361-.81 1.102 1.102 0 0 1 .841-.283Zm-1.103 17.272V17.558c-4.812.089-7.99 2.726-7.99 5.993.011 3.09 1.6 5 8.001 6.412h-.011Zm2.207 2.77V45.27c4.966-.089 8.2-2.726 8.2-6.18-.011-3.146-1.755-5.044-8.211-6.357h.011ZM293.248 193.681c-41.341 7.416-30.415 68.644 11.036 61.217 41.451-7.427 30.36-68.644-11.036-61.217Z" fill="#DBDBDB"/><path d="M297.121 192.986c-39.387 7.063-28.473 68.291 11.036 61.205 39.509-7.085 28.418-68.29-11.036-61.205Z" fill="#EBEBEB"/><path d="M327.603 225.034c-.221 10.904-6.622 21.476-20.439 23.959-32.733 5.872-41.804-44.938-9.116-50.765.221 0 .431-.077.652-.099-30.658 6.136-21.874 54.219 9.347 48.624 12.691-2.328 18.872-11.742 19.556-21.719Z" fill="#DBDBDB"/><path d="M304.99 204.795a1.104 1.104 0 0 1 .905 1.103l-.199 1.722a14.11 14.11 0 0 1 7.295 3.918 1.181 1.181 0 0 1 .486 1.103 1.101 1.101 0 0 1-1.247.938 1.105 1.105 0 0 1-.729-.386 12.245 12.245 0 0 0-6.125-3.554l-1.412 12.03c6.367 2.152 8.828 4.922 8.332 9.137-.53 4.558-4.735 7.339-10.131 6.876l-.397 3.311a1.042 1.042 0 0 1-1.154.91 1.041 1.041 0 0 1-.91-1.153l.397-3.399a16.28 16.28 0 0 1-9.182-5.309 1.088 1.088 0 0 1-.3-.435 1.092 1.092 0 0 1-.064-.525 1.106 1.106 0 0 1 1.203-.949c.289.03.555.173.739.398a13.972 13.972 0 0 0 7.924 4.899l1.435-12.26c-6.28-2.208-8.663-4.856-8.167-9.16.497-4.304 4.69-7.207 9.933-6.71l.187-1.645a1.1 1.1 0 0 1 1.181-.86Zm-2.869 16.223 1.379-11.732c-4.182-.408-7.228 1.766-7.593 4.856-.342 2.947.817 4.922 6.214 6.898v-.022Zm1.578 2.847-1.391 11.874c4.304.42 7.394-1.754 7.781-5.021.353-2.946-.949-4.955-6.39-6.831v-.022ZM161.887 96.267c33.417 6.003 24.588 55.5-8.884 49.496-33.472-6.004-24.588-55.5 8.884-49.496Z" fill="#DBDBDB"/><path d="M158.752 95.704c31.839 5.716 23.01 55.18-8.884 49.496-31.894-5.683-23.021-55.18 8.884-49.496Z" fill="#EBEBEB"/><path d="M134.109 121.616c.177 8.829 5.308 17.371 16.554 19.379 26.486 4.746 33.792-36.341 7.372-41.075l-.53-.089c24.787 4.966 17.658 43.846-7.548 39.31-10.33-1.843-15.296-9.457-15.848-17.525Z" fill="#DBDBDB"/><path d="M156.181 103.528a.854.854 0 0 1 .673.971l-.265 1.38a11.48 11.48 0 0 1 5.684 3.554.96.96 0 0 1 .331.882.9.9 0 0 1-.405.58.89.89 0 0 1-.699.105.857.857 0 0 1-.574-.353 10.003 10.003 0 0 0-4.745-3.201l-1.788 9.634c5.022 2.075 6.865 4.415 6.235 7.825-.684 3.642-4.226 5.661-8.552 4.999l-.497 2.682a.872.872 0 0 1-.982.673.859.859 0 0 1-.673-.982l.507-2.715a13.244 13.244 0 0 1-7.118-4.789.853.853 0 0 1-.243-.784.917.917 0 0 1 1.016-.706.846.846 0 0 1 .322.118.84.84 0 0 1 .251.235 11.323 11.323 0 0 0 6.125 4.414l1.832-9.8c-4.955-2.097-6.732-4.414-6.092-7.835.641-3.421 4.172-5.518 8.388-4.878l.243-1.302a.844.844 0 0 1 .359-.577.848.848 0 0 1 .667-.13Zm-3.189 12.979 1.754-9.403c-3.311-.552-5.926 1.037-6.39 3.52-.463 2.484.387 3.94 4.636 5.883Zm1.103 2.372-1.766 9.502c3.455.574 6.059-1.004 6.545-3.619.463-2.417-.475-4.095-4.779-5.927v.044Z" fill="#DBDBDB"/><path d="M305.95 432.456h-72.683v16.057h72.683v-16.057Z" fill="#EBEBEB"/><g opacity=".1" fill="#000"><path opacity=".1" d="M236.258 433.935c.736 4.25.736 8.595 0 12.845a37.639 37.639 0 0 1 0-12.845ZM241.677 433.934a37.695 37.695 0 0 1 0 12.846 32.328 32.328 0 0 1-.552-6.423c-.025-2.154.16-4.305.552-6.423ZM244.325 433.934a38.416 38.416 0 0 1 0 12.846 37.645 37.645 0 0 1 0-12.846ZM258.837 433.934c.387 2.119.571 4.27.552 6.423a33.176 33.176 0 0 1-.552 6.423 32.327 32.327 0 0 1-.551-6.423c-.025-2.154.16-4.305.551-6.423ZM262.766 433.934a37.645 37.645 0 0 1 0 12.846 32.402 32.402 0 0 1-.552-6.423c-.024-2.154.16-4.305.552-6.423ZM279 433.934a37.645 37.645 0 0 1 0 12.846 37.645 37.645 0 0 1 0-12.846ZM282.753 433.934a37.695 37.695 0 0 1 0 12.846 37.645 37.645 0 0 1 0-12.846ZM289.65 433.934a37.645 37.645 0 0 1 0 12.846 37.645 37.645 0 0 1 0-12.846ZM275.866 433.934c.386 2.119.571 4.27.552 6.423a32.402 32.402 0 0 1-.552 6.423 33.255 33.255 0 0 1-.552-6.423 34.162 34.162 0 0 1 .552-6.423ZM249.115 433.934a37.645 37.645 0 0 1 0 12.846 37.645 37.645 0 0 1 0-12.846ZM267.931 433.934c.386 2.119.571 4.27.552 6.423a32.402 32.402 0 0 1-.552 6.423 33.334 33.334 0 0 1-.552-6.423 34.162 34.162 0 0 1 .552-6.423ZM270.635 433.934a37.645 37.645 0 0 1 0 12.846 37.645 37.645 0 0 1 0-12.846ZM298.666 433.934a37.645 37.645 0 0 1 0 12.846 37.695 37.695 0 0 1 0-12.846ZM302.683 433.934a37.645 37.645 0 0 1 0 12.846 37.695 37.695 0 0 1 0-12.846ZM292.839 433.934a37.645 37.645 0 0 1 0 12.846 37.645 37.645 0 0 1 0-12.846ZM255.703 433.934a37.645 37.645 0 0 1 0 12.846 37.645 37.645 0 0 1 0-12.846Z"/></g><path opacity=".1" d="M305.95 432.456v3.421l-72.683 2.284v-5.705h72.683Z" fill="#000"/><path d="M300.973 416.398H228.29v16.058h72.683v-16.058Z" fill="#EBEBEB"/><g opacity=".1" fill="#000"><path opacity=".1" d="M231.347 417.866c.386 2.123.571 4.277.552 6.434a33.255 33.255 0 0 1-.552 6.423 32.402 32.402 0 0 1-.552-6.423c-.025-2.157.16-4.312.552-6.434ZM236.7 417.866a37.76 37.76 0 0 1 0 12.857 37.709 37.709 0 0 1 0-12.857ZM239.348 417.866c.387 2.122.571 4.277.552 6.434a32.402 32.402 0 0 1-.552 6.423 33.334 33.334 0 0 1-.552-6.423 34.27 34.27 0 0 1 .552-6.434ZM253.86 417.866a37.709 37.709 0 0 1 0 12.857 37.76 37.76 0 0 1 0-12.857ZM257.833 417.866a37.709 37.709 0 0 1 0 12.857 37.76 37.76 0 0 1 0-12.857ZM274.034 417.866c.387 2.122.571 4.277.552 6.434a33.176 33.176 0 0 1-.552 6.423 32.402 32.402 0 0 1-.552-6.423 33.448 33.448 0 0 1 .552-6.434ZM277.786 417.866c.387 2.122.572 4.277.552 6.434a33.176 33.176 0 0 1-.552 6.423 32.327 32.327 0 0 1-.551-6.423c-.025-2.158.16-4.312.551-6.434ZM284.673 417.866c.392 2.122.576 4.276.552 6.434a32.402 32.402 0 0 1-.552 6.423 33.176 33.176 0 0 1-.552-6.423 34.187 34.187 0 0 1 .552-6.434ZM270.9 417.866a37.709 37.709 0 0 1 0 12.857 37.709 37.709 0 0 1 0-12.857ZM244.149 417.866a37.76 37.76 0 0 1 0 12.857 32.402 32.402 0 0 1-.552-6.423 33.29 33.29 0 0 1 .552-6.434ZM262.965 417.866a37.709 37.709 0 0 1 0 12.857 37.709 37.709 0 0 1 0-12.857ZM265.669 417.866a37.76 37.76 0 0 1 0 12.857 32.402 32.402 0 0 1-.552-6.423 33.29 33.29 0 0 1 .552-6.434ZM293.656 417.866a34.27 34.27 0 0 1 .552 6.434 33.176 33.176 0 0 1-.552 6.423 32.402 32.402 0 0 1-.552-6.423c-.024-2.158.16-4.312.552-6.434ZM297.717 417.866a37.709 37.709 0 0 1 0 12.857 32.327 32.327 0 0 1-.551-6.423c-.025-2.158.16-4.312.551-6.434ZM287.873 417.866c.387 2.122.571 4.277.552 6.434a33.176 33.176 0 0 1-.552 6.423 32.327 32.327 0 0 1-.551-6.423c-.02-2.157.165-4.312.551-6.434ZM250.726 417.866a33.29 33.29 0 0 1 .552 6.434 32.402 32.402 0 0 1-.552 6.423 37.709 37.709 0 0 1 0-12.857Z"/></g><path opacity=".1" d="M300.984 416.398v3.41l-72.694 2.296v-5.706h72.694Z" fill="#000"/><path d="M312.208 384.405h-72.683v16.057h72.683v-16.057Z" fill="#EBEBEB"/><g opacity=".1" fill="#000"><path opacity=".1" d="M242.515 385.884c.736 4.25.736 8.596 0 12.846a37.695 37.695 0 0 1 0-12.846ZM247.901 385.884c.386 2.119.571 4.269.552 6.423a33.255 33.255 0 0 1-.552 6.423 32.409 32.409 0 0 1-.552-6.423c-.025-2.154.16-4.305.552-6.423ZM250.583 385.884c.736 4.25.736 8.595 0 12.846a37.645 37.645 0 0 1 0-12.846ZM265.095 385.884c.386 2.119.571 4.269.552 6.423a32.409 32.409 0 0 1-.552 6.423 32.409 32.409 0 0 1-.552-6.423 34.155 34.155 0 0 1 .552-6.423ZM269.024 385.884c.386 2.119.571 4.269.552 6.423a33.255 33.255 0 0 1-.552 6.423 32.409 32.409 0 0 1-.552-6.423c-.024-2.154.16-4.305.552-6.423ZM285.258 385.884c.736 4.25.736 8.595 0 12.846a37.645 37.645 0 0 1 0-12.846ZM289.01 385.884c.736 4.25.736 8.595 0 12.846a37.645 37.645 0 0 1 0-12.846ZM295.908 385.884c.735 4.25.735 8.595 0 12.846a37.645 37.645 0 0 1 0-12.846ZM282.113 385.884c.391 2.118.576 4.269.551 6.423a32.333 32.333 0 0 1-.551 6.423 33.176 33.176 0 0 1-.552-6.423 34.072 34.072 0 0 1 .552-6.423ZM255.372 385.884c.736 4.25.736 8.595 0 12.846a37.695 37.695 0 0 1 0-12.846ZM274.189 385.884c.391 2.118.576 4.269.552 6.423a32.409 32.409 0 0 1-.552 6.423 33.176 33.176 0 0 1-.552-6.423 34.155 34.155 0 0 1 .552-6.423ZM276.892 385.884c.736 4.25.736 8.595 0 12.846a37.695 37.695 0 0 1 0-12.846ZM304.88 385.884c.736 4.25.736 8.595 0 12.846a37.645 37.645 0 0 1 0-12.846ZM308.941 385.884c.736 4.25.736 8.595 0 12.846a37.645 37.645 0 0 1 0-12.846ZM299.108 385.884a38.416 38.416 0 0 1 0 12.846 37.645 37.645 0 0 1 0-12.846ZM261.961 385.884c.736 4.25.736 8.595 0 12.846a37.645 37.645 0 0 1 0-12.846Z"/></g><path opacity=".1" d="M312.208 384.405v3.421l-72.683 2.285v-5.706h72.683Z" fill="#000"/><path d="M310.376 368.348h-72.683v16.057h72.683v-16.057Z" fill="#EBEBEB"/><g opacity=".1" fill="#000"><path opacity=".1" d="M307.109 382.672a34.27 34.27 0 0 1-.552-6.434c-.025-2.154.16-4.305.552-6.423.397 2.117.582 4.269.552 6.423a33.368 33.368 0 0 1-.552 6.434ZM301.701 382.672a37.709 37.709 0 0 1 0-12.857 37.709 37.709 0 0 1 0 12.857ZM299.053 382.672a33.29 33.29 0 0 1-.552-6.434c-.03-2.154.155-4.306.552-6.423.391 2.118.576 4.269.552 6.423a34.27 34.27 0 0 1-.552 6.434ZM284.529 382.672a37.76 37.76 0 0 1 0-12.857 37.709 37.709 0 0 1 0 12.857ZM280.612 382.672a37.709 37.709 0 0 1 0-12.857 37.76 37.76 0 0 1 0 12.857ZM264.366 382.672a34.186 34.186 0 0 1-.551-6.434c-.025-2.154.16-4.305.551-6.423.398 2.117.582 4.269.552 6.423a34.104 34.104 0 0 1-.552 6.434ZM260.614 382.672a34.27 34.27 0 0 1-.552-6.434 33.334 33.334 0 0 1 .552-6.423c.397 2.117.582 4.269.552 6.423a34.187 34.187 0 0 1-.552 6.434ZM253.728 382.672a37.709 37.709 0 0 1 0-12.857 37.709 37.709 0 0 1 0 12.857ZM267.501 382.672a37.709 37.709 0 0 1 0-12.857 37.709 37.709 0 0 1 0 12.857ZM294.252 382.672a34.27 34.27 0 0 1-.552-6.434c-.024-2.154.16-4.305.552-6.423.397 2.117.582 4.269.552 6.423a33.368 33.368 0 0 1-.552 6.434ZM275.491 382.672a37.709 37.709 0 0 1 0-12.857 37.709 37.709 0 0 1 0 12.857ZM272.732 382.672a34.187 34.187 0 0 1-.552-6.434c-.025-2.154.16-4.305.552-6.423.397 2.117.582 4.269.552 6.423a33.448 33.448 0 0 1-.552 6.434ZM244.745 382.672a34.187 34.187 0 0 1-.552-6.434c-.03-2.154.155-4.306.552-6.423.391 2.118.576 4.269.551 6.423a34.186 34.186 0 0 1-.551 6.434ZM240.683 382.672a34.186 34.186 0 0 1-.551-6.434c-.025-2.154.16-4.305.551-6.423.398 2.117.582 4.269.552 6.423a33.29 33.29 0 0 1-.552 6.434ZM250.527 382.672a34.186 34.186 0 0 1-.551-6.434 32.327 32.327 0 0 1 .551-6.423c.392 2.118.577 4.269.552 6.423a34.104 34.104 0 0 1-.552 6.434ZM287.63 382.672a37.76 37.76 0 0 1 0-12.857 37.709 37.709 0 0 1 0 12.857Z"/></g><path opacity=".1" d="M310.376 368.348v3.41l-72.683 2.295v-5.705h72.683Z" fill="#000"/><path d="M305.95 352.279h-72.683v16.058h72.683v-16.058Z" fill="#EBEBEB"/><g opacity=".1" fill="#000"><path opacity=".1" d="M236.258 353.78c.736 4.25.736 8.596 0 12.846a37.645 37.645 0 0 1 0-12.846ZM241.677 353.78a34.07 34.07 0 0 1 .551 6.423 33.254 33.254 0 0 1-.551 6.423 32.328 32.328 0 0 1-.552-6.423 34.072 34.072 0 0 1 .552-6.423ZM244.325 353.78c.736 4.25.736 8.596 0 12.846a37.645 37.645 0 0 1 0-12.846ZM258.837 353.78c.387 2.119.571 4.269.552 6.423a32.328 32.328 0 0 1-.552 6.423 33.254 33.254 0 0 1-.551-6.423 34.07 34.07 0 0 1 .551-6.423ZM262.766 353.78c.386 2.119.571 4.269.552 6.423a33.176 33.176 0 0 1-.552 6.423 32.402 32.402 0 0 1-.552-6.423 34.155 34.155 0 0 1 .552-6.423ZM279 353.78c.736 4.25.736 8.596 0 12.846a37.645 37.645 0 0 1 0-12.846ZM282.752 353.78c.736 4.25.736 8.596 0 12.846a38.416 38.416 0 0 1 0-12.846ZM289.65 353.78c.736 4.25.736 8.596 0 12.846a37.645 37.645 0 0 1 0-12.846ZM275.866 353.78c.392 2.118.577 4.269.552 6.423a32.402 32.402 0 0 1-.552 6.423 37.645 37.645 0 0 1 0-12.846ZM249.115 353.78c.736 4.25.736 8.596 0 12.846a37.645 37.645 0 0 1 0-12.846ZM267.931 353.78c.392 2.118.576 4.269.552 6.423a32.402 32.402 0 0 1-.552 6.423 37.645 37.645 0 0 1 0-12.846ZM270.635 353.78c.736 4.25.736 8.596 0 12.846a37.645 37.645 0 0 1 0-12.846ZM298.666 353.78a38.416 38.416 0 0 1 0 12.846 37.695 37.695 0 0 1 0-12.846ZM302.683 353.78c.736 4.25.736 8.596 0 12.846a37.695 37.695 0 0 1 0-12.846ZM292.85 353.78c.736 4.25.736 8.596 0 12.846a37.695 37.695 0 0 1 0-12.846ZM255.703 353.78c.736 4.25.736 8.596 0 12.846a32.402 32.402 0 0 1-.552-6.423 33.334 33.334 0 0 1 .552-6.423Z"/></g><path opacity=".1" d="M305.95 352.279v3.421l-72.683 2.285v-5.706h72.683Z" fill="#000"/><path d="M305.95 400.473h-72.683v16.057h72.683v-16.057Z" fill="#EBEBEB"/><g opacity=".1" fill="#000"><path opacity=".1" d="M302.683 414.787a37.695 37.695 0 0 1 0-12.846 37.645 37.645 0 0 1 0 12.846ZM297.276 414.787a33.176 33.176 0 0 1-.552-6.423c-.03-2.154.155-4.306.552-6.423a37.695 37.695 0 0 1 0 12.846ZM294.627 414.787a37.645 37.645 0 0 1 0-12.846c.397 2.117.582 4.269.552 6.423a33.176 33.176 0 0 1-.552 6.423ZM280.115 414.787a37.645 37.645 0 0 1 0-12.846 37.645 37.645 0 0 1 0 12.846ZM276.186 414.787a33.255 33.255 0 0 1-.552-6.423c-.03-2.154.155-4.306.552-6.423a37.645 37.645 0 0 1 0 12.846ZM259.941 414.787a37.645 37.645 0 0 1 0-12.846 37.645 37.645 0 0 1 0 12.846ZM256.189 414.787a37.645 37.645 0 0 1 0-12.846 37.645 37.645 0 0 1 0 12.846ZM249.302 414.787a34.155 34.155 0 0 1-.552-6.423 33.334 33.334 0 0 1 .552-6.423c.397 2.117.582 4.269.552 6.423a34.155 34.155 0 0 1-.552 6.423ZM263.086 414.787a37.645 37.645 0 0 1 0-12.846 37.645 37.645 0 0 1 0 12.846ZM289.837 414.787a37.695 37.695 0 0 1 0-12.846 37.645 37.645 0 0 1 0 12.846ZM271.076 414.787a37.695 37.695 0 0 1 0-12.846 37.645 37.645 0 0 1 0 12.846ZM268.306 414.787a37.645 37.645 0 0 1 0-12.846 37.645 37.645 0 0 1 0 12.846ZM240.319 414.787a37.645 37.645 0 0 1 0-12.846 37.645 37.645 0 0 1 0 12.846ZM236.258 414.787a37.645 37.645 0 0 1 0-12.846 37.645 37.645 0 0 1 0 12.846ZM246.102 414.787a37.645 37.645 0 0 1 0-12.846 37.645 37.645 0 0 1 0 12.846ZM283.216 414.787a34.155 34.155 0 0 1-.552-6.423c-.03-2.154.155-4.306.552-6.423.392 2.118.576 4.269.552 6.423a34.155 34.155 0 0 1-.552 6.423Z"/></g><path opacity=".1" d="M305.95 400.473v3.41l-72.683 2.296v-5.706h72.683Z" fill="#000"/><path d="M205.887 147.407c27.425 8.586 14.755 49.21-12.713 40.613-27.469-8.597-14.799-49.177 12.713-40.613Z" fill="#336EE1"/><path opacity=".1" d="M205.887 147.407c27.425 8.586 14.755 49.21-12.713 40.613-27.469-8.597-14.799-49.177 12.713-40.613Z" fill="#000"/><path d="M203.316 146.635c26.133 8.178 13.464 48.812-12.714 40.612-26.177-8.199-13.464-48.801 12.714-40.612Z" fill="#336EE1"/><path opacity=".1" d="M179.875 165.771c-.794 7.427 2.605 15.142 11.809 18.022 21.719 6.798 32.236-26.917 10.55-33.704l-.43-.121c20.284 6.798 10.186 38.681-10.517 32.203a15.548 15.548 0 0 1-11.412-16.4Z" fill="#000"/><path opacity=".1" d="M200.899 154.294a.718.718 0 0 1 .408.927l-.43 1.103a9.654 9.654 0 0 1 4.171 3.841.817.817 0 0 1 .133.783.764.764 0 0 1-.406.409.75.75 0 0 1-.576 0 .679.679 0 0 1-.42-.387 8.547 8.547 0 0 0-3.443-3.399l-3.002 7.726c3.852 2.505 5.011 4.767 3.951 7.482-1.103 2.925-4.414 4.039-7.891 2.814l-.838 2.152a.705.705 0 0 1-.378.392.7.7 0 0 1-.544.011.7.7 0 0 1-.233-.15.69.69 0 0 1-.218-.498.71.71 0 0 1 .048-.274l.85-2.207a11.173 11.173 0 0 1-5.176-5.087.776.776 0 0 1-.12-.339.776.776 0 0 1 .043-.357.763.763 0 0 1 1.211-.271.7.7 0 0 1 .169.238 9.598 9.598 0 0 0 4.414 4.602l3.057-7.868c-3.796-2.528-4.911-4.713-3.841-7.472 1.071-2.759 4.338-3.973 7.726-2.748l.408-1.048a.73.73 0 0 1 .927-.375Zm-4.679 10.263 2.924-7.537c-2.693-.983-5.087-.067-5.86 1.92-.772 1.986-.298 3.377 2.936 5.617Zm.563 2.207-2.958 7.571c2.781 1.015 5.198.11 6.015-1.986.739-1.91.22-3.444-3.057-5.64v.055Z" fill="#000"/><path d="M175.285 329.876c23.175 7.24 12.459 41.562-10.738 34.3-23.198-7.262-12.46-41.562 10.738-34.3Z" fill="#336EE1"/><path opacity=".1" d="M175.285 329.876c23.175 7.24 12.459 41.562-10.738 34.3-23.198-7.262-12.46-41.562 10.738-34.3Z" fill="#000"/><path d="M173.11 329.192c22.072 6.908 11.367 41.219-10.738 34.3-22.105-6.92-11.367-41.22 10.738-34.3Z" fill="#336EE1"/><path opacity=".1" d="M153.312 345.36c-.673 6.268 2.207 12.79 9.932 15.218 18.342 5.739 27.226-22.734 8.906-28.473a3.549 3.549 0 0 0-.353-.099c17.128 5.739 8.597 32.678-8.895 27.193a13.132 13.132 0 0 1-9.59-13.839Z" fill="#000"/><path opacity=".1" d="M171.08 335.659a.63.63 0 0 1 .342.784l-.364.927a8.297 8.297 0 0 1 3.52 3.244.707.707 0 0 1 .11.662.637.637 0 0 1-.827.354.6.6 0 0 1-.364-.331 7.114 7.114 0 0 0-2.903-2.87l-2.538 6.533c3.255 2.119 4.227 4.029 3.311 6.313-.961 2.472-3.72 3.421-6.622 2.384l-.706 1.81a.618.618 0 0 1-.773.353.607.607 0 0 1-.342-.784l.706-1.843a9.378 9.378 0 0 1-4.414-4.304.659.659 0 0 1-.066-.585.663.663 0 0 1 .816-.353.643.643 0 0 1 .354.32 8.101 8.101 0 0 0 3.719 3.896l2.582-6.622c-3.2-2.13-4.149-3.973-3.244-6.301.905-2.329 3.675-3.311 6.544-2.318l.342-.894a.617.617 0 0 1 .129-.212.617.617 0 0 1 .442-.204.627.627 0 0 1 .246.041Zm-3.962 8.674 2.472-6.367c-2.274-.839-4.293-.067-4.944 1.611-.651 1.677-.254 2.858 2.472 4.756Zm.474 1.821-2.461 6.434c2.351.861 4.415.089 5.077-1.677.662-1.766.154-2.914-2.616-4.757Z" fill="#000"/><path d="M173.464 255.769c2.141 21.499-29.698 24.699-31.839 3.168-2.141-21.531 29.698-24.699 31.839-3.168Z" fill="#336EE1"/><path opacity=".1" d="M173.464 255.769c2.141 21.499-29.698 24.699-31.839 3.168-2.141-21.531 29.698-24.699 31.839-3.168Z" fill="#000"/><path d="M173.265 253.75c2.042 20.494-29.797 23.694-31.839 3.167-2.042-20.527 29.797-23.683 31.839-3.167Z" fill="#336EE1"/><path opacity=".1" d="M153.124 243.177a12.22 12.22 0 0 0-8.961 13.486c1.688 17.029 28.12 14.347 26.431-2.626v-.331c1.269 16.035-23.76 18.441-25.383 2.207a11.681 11.681 0 0 1 7.913-12.736Z" fill="#000"/><path opacity=".1" d="M167.25 254.346a.54.54 0 0 1-.518.552h-.883a7.317 7.317 0 0 1-1.435 4.017.608.608 0 0 1-.497.331.562.562 0 0 1-.573-.563.537.537 0 0 1 .132-.408 6.31 6.31 0 0 0 1.346-3.388l-6.235.209c-.607 3.4-1.832 4.867-4.006 4.934-2.362.077-4.094-1.844-4.271-4.625l-1.744.056a.555.555 0 0 1-.551-.552.55.55 0 0 1 .551-.552h1.766a8.29 8.29 0 0 1 1.998-5.077.56.56 0 0 1 .452-.264.57.57 0 0 1 .574.54.56.56 0 0 1-.143.409 7.253 7.253 0 0 0-1.888 4.414l6.346-.21c.629-3.31 1.81-4.778 4.039-4.844 2.23-.067 4.028 1.832 4.183 4.535h.839a.534.534 0 0 1 .518.486Zm-8.475-.221 6.081-.198c-.111-2.152-1.446-3.532-3.057-3.488-1.612.044-2.428.795-3.024 3.686Zm-1.325 1.027-6.147.198c.122 2.207 1.457 3.631 3.146 3.576 1.688-.055 2.45-.861 2.957-3.774h.044Z" fill="#000"/><path d="M100.792 12.548c-20.77 5.595-12.526 36.419 8.277 30.768 20.802-5.65 12.525-36.374-8.277-30.768Z" fill="#336EE1"/><path opacity=".1" d="M100.792 12.548c-20.77 5.595-12.526 36.419 8.277 30.768 20.802-5.65 12.525-36.374-8.277-30.768Z" fill="#000"/><path d="M102.745 12.018c-19.799 5.33-11.555 36.066 8.31 30.768 19.865-5.297 11.51-36.098-8.31-30.768Z" fill="#336EE1"/><path opacity=".1" d="M95.097 33.483a12.14 12.14 0 0 0 14.557 6.93c16.554-4.094 10.153-29.796-6.357-25.658l-.32.077c15.616-3.531 21.564 20.792 5.794 24.699a11.643 11.643 0 0 1-13.674-6.048Z" fill="#000"/><path opacity=".1" d="M104.08 17.956a.552.552 0 0 1 .618.44l.155.873a7.105 7.105 0 0 1 4.16.839.609.609 0 0 1 .398.441.574.574 0 0 1-.475.651.518.518 0 0 1-.419-.088 6.412 6.412 0 0 0-3.532-.839l1.104 6.114c3.443.11 5.065 1.104 5.441 3.245.408 2.317-1.236 4.304-3.951 4.878l.298 1.699a.559.559 0 0 1-1.104.188l-.309-1.722a8.398 8.398 0 0 1-5.286-1.247.56.56 0 0 1-.32-.42.584.584 0 0 1 .452-.64.575.575 0 0 1 .42.089 7.139 7.139 0 0 0 4.657 1.28l-1.104-6.224c-3.399-.133-4.966-1.104-5.352-3.311-.386-2.207 1.192-4.249 3.862-4.812l-.143-.839a.542.542 0 0 1 .43-.595Zm.994 8.387-1.104-5.96c-2.108.42-3.311 1.932-3.002 3.51.309 1.578 1.17 2.273 4.106 2.45Zm1.203 1.103 1.103 6.026c2.207-.43 3.366-1.942 3.079-3.609-.287-1.666-1.236-2.229-4.182-2.361v-.056Z" fill="#000"/><path d="M68.776 200.435c-12.228 17.658 13.928 35.812 26.166 18.11 12.239-17.701-13.927-35.822-26.166-18.11Z" fill="#336EE1"/><path opacity=".1" d="M68.776 200.435c-12.228 17.658 13.928 35.812 26.166 18.11 12.239-17.701-13.927-35.822-26.166-18.11Z" fill="#000"/><path d="M69.924 198.78c-11.654 16.841 14.501 34.973 26.166 18.11 11.665-16.863-14.501-34.973-26.166-18.11Z" fill="#336EE1"/><path opacity=".1" d="M77.947 220.079a12.137 12.137 0 0 0 15.583-4.116c9.932-13.806-11.467-29.246-21.421-15.451l-.188.276c9.624-12.779 29.864 1.921 20.362 15.087a11.643 11.643 0 0 1-14.336 4.204Z" fill="#000"/><path opacity=".1" d="M74.78 202.444a.532.532 0 0 1 .74-.067l.683.563a7.302 7.302 0 0 1 3.72-2.052.596.596 0 0 1 .584.088.55.55 0 0 1 .193.386.561.561 0 0 1-.137.409.485.485 0 0 1-.376.209 6.331 6.331 0 0 0-3.222 1.645l4.778 3.961c2.693-2.141 4.57-2.427 6.236-1.048 1.666 1.38 1.832 4.083.132 6.268l1.335 1.104a.534.534 0 0 1-.684.817l-1.346-1.104a8.328 8.328 0 0 1-4.834 2.461.554.554 0 0 1-.623-.222.554.554 0 0 1 .038-.661.556.556 0 0 1 .376-.209 7.115 7.115 0 0 0 4.303-2.042l-4.855-4.028c-2.693 2.097-4.503 2.373-6.214.96-1.71-1.413-1.787-4.017-.11-6.147l-.651-.53a.54.54 0 0 1-.066-.761Zm6.169 5.749-4.657-3.862c-1.336 1.677-1.258 3.598 0 4.613 1.258 1.015 2.306 1.004 4.657-.751Zm1.655.111 4.713 3.907c1.38-1.744 1.313-3.664 0-4.746-1.314-1.081-2.373-.971-4.713.839Z" fill="#000"/><path d="M104.433 334.511c-15.042 9.69-.706 32.005 14.347 22.271 15.053-9.734.695-31.982-14.347-22.271Z" fill="#336EE1"/><path opacity=".1" d="M104.433 334.511c-15.042 9.69-.706 32.005 14.347 22.271 15.053-9.734.695-31.982-14.347-22.271Z" fill="#000"/><path d="M105.824 333.595c-14.347 9.248 0 31.53 14.347 22.271s0-31.519-14.347-22.271Z" fill="#336EE1"/><path opacity=".1" d="M105.206 352.533a10.134 10.134 0 0 0 13.298 1.81c12.063-7.449.486-26.155-11.554-18.761l-.232.154c11.477-6.765 22.359 11.036 10.848 18.088a9.656 9.656 0 0 1-12.36-1.291Z" fill="#000"/><path opacity=".1" d="M108.384 337.965a.457.457 0 0 1 .607.188l.343.651a5.968 5.968 0 0 1 3.509-.397.545.545 0 0 1 .419.254.462.462 0 0 1 .029.363.473.473 0 0 1-.238.277.458.458 0 0 1-.353 0 5.32 5.32 0 0 0-3.002.231l2.406 4.569c2.759-.783 4.293-.408 5.142 1.192.85 1.6.1 3.719-1.898 4.856l.662 1.28a.442.442 0 0 1-.176.596.45.45 0 0 1-.596-.187l-.684-1.292a6.924 6.924 0 0 1-4.503.365.523.523 0 0 1-.364-.254.462.462 0 0 1 .54-.662 6.003 6.003 0 0 0 3.973-.199l-2.461-4.646c-2.726.75-4.215.386-5.076-1.236-.861-1.623-.099-3.664 1.865-4.768l-.32-.618a.458.458 0 0 1 .176-.563Zm2.914 6.39-2.351-4.414c-1.556.872-2.108 2.362-1.49 3.542.618 1.181 1.479 1.468 3.841.872Zm1.247.607 2.384 4.503c1.611-.894 2.207-2.395 1.512-3.631-.696-1.236-1.523-1.512-3.896-.883v.011Z" fill="#000"/><path d="M273.67 432.456h-72.683v16.057h72.683v-16.057Z" fill="#336EE1"/><g opacity=".1" fill="#000"><path opacity=".1" d="M203.978 433.935c.386 2.118.571 4.269.552 6.423a32.392 32.392 0 0 1-.552 6.422 33.252 33.252 0 0 1-.552-6.422 34.148 34.148 0 0 1 .552-6.423ZM209.397 433.934a37.695 37.695 0 0 1 0 12.846 37.645 37.645 0 0 1 0-12.846ZM212.034 433.934a37.645 37.645 0 0 1 0 12.846 37.645 37.645 0 0 1 0-12.846ZM226.558 433.934a37.695 37.695 0 0 1 0 12.846 37.645 37.645 0 0 1 0-12.846ZM230.486 433.934a37.645 37.645 0 0 1 0 12.846 37.695 37.695 0 0 1 0-12.846ZM246.72 433.934c.392 2.118.577 4.269.552 6.423a32.402 32.402 0 0 1-.552 6.423 33.334 33.334 0 0 1-.552-6.423 34.162 34.162 0 0 1 .552-6.423ZM250.472 433.934c.392 2.118.577 4.269.552 6.423a32.328 32.328 0 0 1-.552 6.423 33.254 33.254 0 0 1-.551-6.423c-.02-2.153.165-4.304.551-6.423ZM257.359 433.934a37.645 37.645 0 0 1 0 12.846 37.645 37.645 0 0 1 0-12.846ZM243.586 433.934a37.645 37.645 0 0 1 0 12.846 32.402 32.402 0 0 1-.552-6.423 33.334 33.334 0 0 1 .552-6.423ZM216.835 433.934c.386 2.119.571 4.27.552 6.423a33.255 33.255 0 0 1-.552 6.423 32.402 32.402 0 0 1-.552-6.423 34.162 34.162 0 0 1 .552-6.423ZM235.651 433.934a37.645 37.645 0 0 1 0 12.846 32.402 32.402 0 0 1-.552-6.423 33.334 33.334 0 0 1 .552-6.423ZM238.355 433.934c.386 2.119.571 4.27.552 6.423a32.402 32.402 0 0 1-.552 6.423 33.255 33.255 0 0 1-.552-6.423 34.162 34.162 0 0 1 .552-6.423ZM266.342 433.934c.392 2.118.577 4.269.552 6.423a32.402 32.402 0 0 1-.552 6.423 33.254 33.254 0 0 1-.551-6.423c-.02-2.153.165-4.304.551-6.423ZM270.404 433.934c.386 2.119.571 4.27.551 6.423a32.327 32.327 0 0 1-.551 6.423 32.328 32.328 0 0 1-.552-6.423 34.079 34.079 0 0 1 .552-6.423ZM260.559 433.934c.392 2.118.577 4.269.552 6.423a32.328 32.328 0 0 1-.552 6.423 37.695 37.695 0 0 1 0-12.846ZM223.412 433.934a37.645 37.645 0 0 1 0 12.846 37.695 37.695 0 0 1 0-12.846Z"/></g><path opacity=".1" d="M273.67 432.456v3.421l-72.683 2.284v-5.705h72.683Z" fill="#000"/><path d="M267.6 416.398h-72.683v16.058H267.6v-16.058Z" fill="#336EE1"/><g opacity=".1" fill="#000"><path opacity=".1" d="M264.334 430.723a37.709 37.709 0 0 1 0-12.857 37.709 37.709 0 0 1 0 12.857ZM258.937 430.723a33.254 33.254 0 0 1-.551-6.423 32.436 32.436 0 0 1 .551-6.434 33.29 33.29 0 0 1 .552 6.434 34.072 34.072 0 0 1-.552 6.423ZM256.277 430.723a37.76 37.76 0 0 1 0-12.857c.398 2.121.582 4.276.552 6.434a33.176 33.176 0 0 1-.552 6.423ZM241.765 430.723a37.709 37.709 0 0 1 0-12.857 37.709 37.709 0 0 1 0 12.857ZM237.836 430.723a33.254 33.254 0 0 1-.551-6.423 32.436 32.436 0 0 1 .551-6.434 33.29 33.29 0 0 1 .552 6.434 34.072 34.072 0 0 1-.552 6.423ZM221.591 430.723a37.76 37.76 0 0 1 0-12.857 37.709 37.709 0 0 1 0 12.857ZM217.839 430.723a37.709 37.709 0 0 1 0-12.857 37.709 37.709 0 0 1 0 12.857ZM210.953 430.723a34.072 34.072 0 0 1-.552-6.423 33.29 33.29 0 0 1 .552-6.434c.397 2.121.582 4.276.551 6.434a33.254 33.254 0 0 1-.551 6.423ZM224.726 430.723a37.709 37.709 0 0 1 0-12.857 37.76 37.76 0 0 1 0 12.857ZM251.477 430.723a37.709 37.709 0 0 1 0-12.857 37.709 37.709 0 0 1 0 12.857ZM232.672 430.723a37.709 37.709 0 0 1 0-12.857 37.76 37.76 0 0 1 0 12.857ZM229.957 430.723a37.709 37.709 0 0 1 0-12.857 37.76 37.76 0 0 1 0 12.857ZM201.97 430.723a37.709 37.709 0 0 1 0-12.857 37.76 37.76 0 0 1 0 12.857ZM197.908 430.723a37.76 37.76 0 0 1 0-12.857 37.709 37.709 0 0 1 0 12.857ZM207.752 430.723a37.76 37.76 0 0 1 0-12.857 37.709 37.709 0 0 1 0 12.857ZM244.899 430.723a34.07 34.07 0 0 1-.551-6.423c-.025-2.158.16-4.312.551-6.434.398 2.121.582 4.276.552 6.434a34.072 34.072 0 0 1-.552 6.423Z"/></g><path opacity=".1" d="M267.6 416.398v3.41l-72.683 2.296v-5.706H267.6Z" fill="#000"/><path d="M273.196 400.473h-72.683v16.057h72.683v-16.057Z" fill="#336EE1"/><g opacity=".1" fill="#000"><path opacity=".1" d="M203.514 401.941c.387 2.119.571 4.269.552 6.423a33.176 33.176 0 0 1-.552 6.423 32.327 32.327 0 0 1-.551-6.423c-.025-2.154.16-4.305.551-6.423ZM208.922 401.941c.736 4.25.736 8.595 0 12.846a37.645 37.645 0 0 1 0-12.846ZM211.571 401.941c.386 2.119.571 4.269.552 6.423a32.409 32.409 0 0 1-.552 6.423 33.176 33.176 0 0 1-.552-6.423 34.155 34.155 0 0 1 .552-6.423ZM226.083 401.941c.736 4.25.736 8.595 0 12.846a38.416 38.416 0 0 1 0-12.846ZM230.012 401.941c.736 4.25.736 8.595 0 12.846a37.645 37.645 0 0 1 0-12.846ZM246.257 401.941c.386 2.119.571 4.269.552 6.423a33.255 33.255 0 0 1-.552 6.423 32.409 32.409 0 0 1-.552-6.423c-.025-2.154.16-4.305.552-6.423ZM250.009 401.941c.386 2.119.571 4.269.552 6.423a33.176 33.176 0 0 1-.552 6.423 32.409 32.409 0 0 1-.552-6.423c-.024-2.154.16-4.305.552-6.423ZM256.896 401.941c.391 2.118.576 4.269.551 6.423a32.333 32.333 0 0 1-.551 6.423 37.645 37.645 0 0 1 0-12.846ZM243.123 401.941c.735 4.25.735 8.595 0 12.846a37.645 37.645 0 0 1 0-12.846ZM216.371 401.941c.736 4.25.736 8.595 0 12.846a32.333 32.333 0 0 1-.551-6.423c-.025-2.154.16-4.305.551-6.423ZM235.188 401.941c.736 4.25.736 8.595 0 12.846a37.645 37.645 0 0 1 0-12.846ZM237.892 401.941a34.07 34.07 0 0 1 .551 6.423 33.254 33.254 0 0 1-.551 6.423 32.409 32.409 0 0 1-.552-6.423c-.025-2.154.16-4.305.552-6.423ZM265.879 401.941c.386 2.119.571 4.269.552 6.423a33.334 33.334 0 0 1-.552 6.423 32.409 32.409 0 0 1-.552-6.423 34.072 34.072 0 0 1 .552-6.423ZM269.973 401.941c.736 4.25.736 8.595 0 12.846a32.409 32.409 0 0 1-.552-6.423 33.334 33.334 0 0 1 .552-6.423ZM260.096 401.941c.386 2.119.571 4.269.552 6.423a32.409 32.409 0 0 1-.552 6.423 33.255 33.255 0 0 1-.552-6.423 34.155 34.155 0 0 1 .552-6.423ZM222.949 401.941c.736 4.25.736 8.595 0 12.846a37.645 37.645 0 0 1 0-12.846Z"/></g><path opacity=".1" d="M273.207 400.473v3.41l-72.694 2.296v-5.706h72.694Z" fill="#000"/><path d="M118.339 432.456H45.656v16.057h72.683v-16.057Z" fill="#336EE1"/><g opacity=".1" fill="#000"><path opacity=".1" d="M48.647 433.935c.391 2.118.576 4.269.551 6.423a32.37 32.37 0 0 1-.551 6.422 33.22 33.22 0 0 1-.552-6.422c-.02-2.154.165-4.305.552-6.423ZM54.065 433.934a37.66 37.66 0 0 1 0 12.846 37.655 37.655 0 0 1 0-12.846ZM56.703 433.934a37.655 37.655 0 0 1 0 12.846 37.655 37.655 0 0 1 0-12.846ZM71.226 433.934a37.66 37.66 0 0 1 0 12.846 37.655 37.655 0 0 1 0-12.846ZM75.155 433.934a37.66 37.66 0 0 1 0 12.846 37.655 37.655 0 0 1 0-12.846ZM91.389 433.934c.392 2.118.576 4.269.552 6.423a32.372 32.372 0 0 1-.552 6.423 33.24 33.24 0 0 1-.552-6.423c-.019-2.153.166-4.304.552-6.423ZM95.141 433.934c.392 2.118.577 4.269.552 6.423a32.372 32.372 0 0 1-.552 6.423 33.24 33.24 0 0 1-.552-6.423c-.019-2.153.166-4.304.552-6.423ZM102.027 433.934a37.645 37.645 0 0 1 0 12.846 37.695 37.695 0 0 1 0-12.846ZM88.255 433.934a37.655 37.655 0 0 1 0 12.846 32.38 32.38 0 0 1-.552-6.423c-.025-2.154.16-4.305.552-6.423ZM61.504 433.934c.386 2.119.57 4.27.551 6.423a32.387 32.387 0 0 1-.551 6.423 32.372 32.372 0 0 1-.552-6.423c-.02-2.153.165-4.304.552-6.423ZM80.32 433.934a37.66 37.66 0 0 1 0 12.846 37.655 37.655 0 0 1 0-12.846ZM83.023 433.934c.387 2.119.571 4.27.552 6.423a32.387 32.387 0 0 1-.552 6.423 33.224 33.224 0 0 1-.551-6.423 34.12 34.12 0 0 1 .552-6.423ZM111.055 433.934c.392 2.118.576 4.269.552 6.423a32.402 32.402 0 0 1-.552 6.423 33.176 33.176 0 0 1-.552-6.423 34.162 34.162 0 0 1 .552-6.423ZM115.072 433.934c.386 2.119.571 4.27.552 6.423a32.402 32.402 0 0 1-.552 6.423 33.255 33.255 0 0 1-.552-6.423 34.162 34.162 0 0 1 .552-6.423ZM105.228 433.934c.392 2.118.576 4.269.552 6.423a32.402 32.402 0 0 1-.552 6.423 37.645 37.645 0 0 1 0-12.846ZM68.08 433.934a37.655 37.655 0 0 1 0 12.846 37.655 37.655 0 0 1 0-12.846Z"/></g><path opacity=".1" d="M118.339 432.456v3.421l-72.694 2.284v-5.705h72.694Z" fill="#000"/><path d="M113.362 416.398H40.679v16.058h72.683v-16.058Z" fill="#336EE1"/><g opacity=".1" fill="#000"><path opacity=".1" d="M43.736 417.866a37.719 37.719 0 0 1 0 12.857 37.724 37.724 0 0 1 0-12.857ZM49.088 417.866c.392 2.122.577 4.276.552 6.434a32.387 32.387 0 0 1-.552 6.423 33.224 33.224 0 0 1-.552-6.423c-.019-2.157.166-4.312.552-6.434ZM51.737 417.866a37.719 37.719 0 0 1 0 12.857 37.724 37.724 0 0 1 0-12.857ZM66.25 417.866a37.724 37.724 0 0 1 0 12.857 37.719 37.719 0 0 1 0-12.857ZM70.222 417.866c.392 2.122.576 4.276.552 6.434a32.372 32.372 0 0 1-.552 6.423 33.24 33.24 0 0 1-.552-6.423 34.22 34.22 0 0 1 .552-6.434ZM86.423 417.866a37.724 37.724 0 0 1 0 12.857 37.719 37.719 0 0 1 0-12.857ZM90.175 417.866a37.724 37.724 0 0 1 0 12.857 37.724 37.724 0 0 1 0-12.857ZM97.061 417.866c.387 2.122.571 4.277.552 6.434a33.224 33.224 0 0 1-.552 6.423 32.38 32.38 0 0 1-.552-6.423c-.024-2.158.16-4.312.552-6.434ZM83.278 417.866a37.719 37.719 0 0 1 0 12.857 37.724 37.724 0 0 1 0-12.857ZM56.537 417.866a37.724 37.724 0 0 1 0 12.857 37.724 37.724 0 0 1 0-12.857ZM75.343 417.866a37.724 37.724 0 0 1 0 12.857 37.719 37.719 0 0 1 0-12.857ZM78.057 417.866a37.719 37.719 0 0 1 0 12.857 37.724 37.724 0 0 1 0-12.857ZM106.045 417.866a37.76 37.76 0 0 1 0 12.857 37.709 37.709 0 0 1 0-12.857ZM110.106 417.866a37.709 37.709 0 0 1 0 12.857 37.709 37.709 0 0 1 0-12.857ZM100.262 417.866a37.709 37.709 0 0 1 0 12.857 37.709 37.709 0 0 1 0-12.857ZM63.115 417.866c.386 2.122.57 4.277.552 6.434a33.224 33.224 0 0 1-.552 6.423 32.38 32.38 0 0 1-.552-6.423c-.02-2.157.165-4.312.552-6.434Z"/></g><path opacity=".1" d="M113.362 416.398v3.41l-72.683 2.296v-5.706h72.683Z" fill="#000"/><path d="M124.596 384.405H51.913v16.057h72.683v-16.057Z" fill="#336EE1"/><g opacity=".1" fill="#000"><path opacity=".1" d="M54.904 385.884c.392 2.118.577 4.269.552 6.423a32.372 32.372 0 0 1-.552 6.423 37.655 37.655 0 0 1 0-12.846ZM60.29 385.884c.735 4.25.735 8.595 0 12.846a37.655 37.655 0 0 1 0-12.846ZM62.96 385.884c.736 4.25.736 8.595 0 12.846a37.655 37.655 0 0 1 0-12.846ZM77.484 385.884c.736 4.25.736 8.595 0 12.846a37.655 37.655 0 0 1 0-12.846ZM81.412 385.884c.736 4.25.736 8.595 0 12.846a37.655 37.655 0 0 1 0-12.846ZM97.647 385.884a33.24 33.24 0 0 1 .551 6.423 32.394 32.394 0 0 1-.551 6.423 37.655 37.655 0 0 1 0-12.846ZM101.399 385.884c.391 2.118.576 4.269.552 6.423a32.409 32.409 0 0 1-.552 6.423 37.645 37.645 0 0 1 0-12.846ZM108.285 385.884c.736 4.25.736 8.595 0 12.846a37.645 37.645 0 0 1 0-12.846ZM94.501 385.884a34.13 34.13 0 0 1 .552 6.423 33.24 33.24 0 0 1-.552 6.423 32.379 32.379 0 0 1-.552-6.423c-.024-2.154.16-4.305.552-6.423ZM67.761 385.884c.392 2.118.577 4.269.552 6.423a32.386 32.386 0 0 1-.552 6.423 33.224 33.224 0 0 1-.552-6.423c-.019-2.154.166-4.304.552-6.423ZM86.577 385.884c.736 4.25.736 8.595 0 12.846a32.394 32.394 0 0 1-.551-6.423 33.24 33.24 0 0 1 .551-6.423ZM89.281 385.884a33.24 33.24 0 0 1 .552 6.423 32.386 32.386 0 0 1-.552 6.423 33.224 33.224 0 0 1-.552-6.423c-.019-2.154.166-4.304.552-6.423ZM117.268 385.884c.392 2.118.577 4.269.552 6.423a32.334 32.334 0 0 1-.552 6.423 37.695 37.695 0 0 1 0-12.846ZM121.33 385.884c.391 2.118.576 4.269.551 6.423a32.333 32.333 0 0 1-.551 6.423 33.176 33.176 0 0 1-.552-6.423 34.072 34.072 0 0 1 .552-6.423ZM111.486 385.884c.735 4.25.735 8.595 0 12.846a37.645 37.645 0 0 1 0-12.846ZM74.339 385.884c.735 4.25.735 8.595 0 12.846a38.416 38.416 0 0 1 0-12.846Z"/></g><path opacity=".1" d="M124.596 384.405v3.421l-72.683 2.284v-5.705h72.683Z" fill="#000"/><path d="M122.753 368.348H50.07v16.057h72.683v-16.057Z" fill="#336EE1"/><g opacity=".1" fill="#000"><path opacity=".1" d="M119.498 382.672a33.282 33.282 0 0 1-.552-6.434c-.03-2.154.154-4.305.552-6.423a37.76 37.76 0 0 1 0 12.857ZM114.079 382.672a37.709 37.709 0 0 1 0-12.857 37.709 37.709 0 0 1 0 12.857ZM111.441 382.672a37.76 37.76 0 0 1 0-12.857 37.709 37.709 0 0 1 0 12.857ZM96.918 382.672a37.724 37.724 0 0 1 0-12.857 37.719 37.719 0 0 1 0 12.857ZM92.99 382.672a37.724 37.724 0 0 1 0-12.857 37.719 37.719 0 0 1 0 12.857ZM76.755 382.672a33.33 33.33 0 0 1-.552-6.434c-.03-2.154.155-4.305.552-6.423a37.724 37.724 0 0 1 0 12.857ZM73.003 382.672a33.33 33.33 0 0 1-.552-6.434c-.03-2.154.155-4.305.552-6.423a37.724 37.724 0 0 1 0 12.857ZM66.117 382.672a37.724 37.724 0 0 1 0-12.857 38.482 38.482 0 0 1 0 12.857ZM79.89 382.672a34.205 34.205 0 0 1-.552-6.434c-.025-2.153.16-4.305.551-6.423.398 2.118.582 4.269.552 6.423a33.33 33.33 0 0 1-.552 6.434ZM106.641 382.672a33.282 33.282 0 0 1-.552-6.434c-.03-2.154.155-4.305.552-6.423.391 2.118.576 4.27.551 6.423a34.18 34.18 0 0 1-.551 6.434ZM87.88 382.672a34.205 34.205 0 0 1-.552-6.434c-.025-2.153.16-4.305.551-6.423.398 2.118.582 4.269.552 6.423a33.33 33.33 0 0 1-.552 6.434ZM85.12 382.672a33.33 33.33 0 0 1-.551-6.434c-.03-2.154.154-4.305.552-6.423a37.724 37.724 0 0 1 0 12.857ZM57.133 382.672a37.719 37.719 0 0 1 0-12.857 37.724 37.724 0 0 1 0 12.857ZM53.072 382.673a33.343 33.343 0 0 1-.552-6.434c-.03-2.154.155-4.306.552-6.423a33.24 33.24 0 0 1 .552 6.423 34.228 34.228 0 0 1-.552 6.434ZM62.916 382.672a37.719 37.719 0 0 1 0-12.857 37.724 37.724 0 0 1 0 12.857ZM100.019 382.672a38.482 38.482 0 0 1 0-12.857 37.709 37.709 0 0 1 0 12.857Z"/></g><path opacity=".1" d="M122.753 368.348v3.41l-72.683 2.295v-5.705h72.683Z" fill="#000"/><path d="M118.339 352.279H45.656v16.057h72.683v-16.057Z" fill="#336EE1"/><g opacity=".1" fill="#000"><path opacity=".1" d="M48.647 353.78a37.66 37.66 0 0 1 0 12.846 37.655 37.655 0 0 1 0-12.846ZM54.065 353.78a37.66 37.66 0 0 1 0 12.846 37.655 37.655 0 0 1 0-12.846ZM56.703 353.78c.735 4.25.735 8.596 0 12.846a37.655 37.655 0 0 1 0-12.846ZM71.226 353.78c.736 4.25.736 8.596 0 12.846a32.38 32.38 0 0 1-.552-6.423 33.24 33.24 0 0 1 .552-6.423ZM75.155 353.78a37.66 37.66 0 0 1 0 12.846 37.655 37.655 0 0 1 0-12.846ZM91.389 353.78c.736 4.25.736 8.596 0 12.846a37.655 37.655 0 0 1 0-12.846ZM95.141 353.78c.736 4.25.736 8.596 0 12.846a37.655 37.655 0 0 1 0-12.846ZM102.039 353.78a38.416 38.416 0 0 1 0 12.846 37.645 37.645 0 0 1 0-12.846ZM88.255 353.78c.386 2.119.57 4.269.552 6.423a33.224 33.224 0 0 1-.552 6.423 32.38 32.38 0 0 1-.552-6.423c-.02-2.154.165-4.304.552-6.423ZM61.504 353.78c.391 2.118.576 4.269.551 6.423a32.38 32.38 0 0 1-.551 6.423 37.655 37.655 0 0 1 0-12.846ZM80.32 353.78a34.13 34.13 0 0 1 .552 6.423 33.24 33.24 0 0 1-.552 6.423 32.372 32.372 0 0 1-.552-6.423c-.025-2.154.16-4.305.552-6.423ZM83.023 353.78c.392 2.118.577 4.269.552 6.423a32.372 32.372 0 0 1-.552 6.423 37.655 37.655 0 0 1 0-12.846ZM111.055 353.78c.736 4.25.736 8.596 0 12.846a37.645 37.645 0 0 1 0-12.846ZM115.072 353.78c.392 2.118.577 4.269.552 6.423a32.402 32.402 0 0 1-.552 6.423 37.645 37.645 0 0 1 0-12.846ZM105.228 353.78c.736 4.25.736 8.596 0 12.846a37.645 37.645 0 0 1 0-12.846ZM68.092 353.78c.736 4.25.736 8.596 0 12.846a37.655 37.655 0 0 1 0-12.846Z"/></g><path opacity=".1" d="M118.339 352.279v3.421l-72.683 2.285v-5.706h72.683Z" fill="#000"/><path d="M118.339 400.473H45.656v16.057h72.683v-16.057Z" fill="#336EE1"/><g opacity=".1" fill="#000"><path opacity=".1" d="M115.072 414.787a34.162 34.162 0 0 1-.552-6.423c-.024-2.154.16-4.305.552-6.423.397 2.117.582 4.269.552 6.423a33.176 33.176 0 0 1-.552 6.423ZM109.664 414.787a37.695 37.695 0 0 1 0-12.846c.736 4.25.736 8.595 0 12.846ZM107.016 414.787a33.176 33.176 0 0 1-.552-6.423c-.03-2.154.155-4.306.552-6.423.391 2.118.576 4.269.551 6.423a34.078 34.078 0 0 1-.551 6.423ZM92.492 414.787a38.416 38.416 0 0 1 0-12.846c.736 4.25.736 8.595 0 12.846ZM88.575 414.787a37.66 37.66 0 0 1 0-12.846c.735 4.25.735 8.595 0 12.846ZM72.33 414.787a34.128 34.128 0 0 1-.552-6.423c-.025-2.154.16-4.305.552-6.423a32.38 32.38 0 0 1 .551 6.423 33.224 33.224 0 0 1-.551 6.423ZM68.577 414.787a34.128 34.128 0 0 1-.551-6.423c-.025-2.154.16-4.305.551-6.423.398 2.117.582 4.269.552 6.423a34.128 34.128 0 0 1-.552 6.423ZM61.691 414.787a33.224 33.224 0 0 1-.552-6.423c-.03-2.154.155-4.306.552-6.423a37.66 37.66 0 0 1 0 12.846ZM75.464 414.787a37.66 37.66 0 0 1 0-12.846c.736 4.25.736 8.595 0 12.846ZM102.226 414.787a37.645 37.645 0 0 1 0-12.846c.397 2.117.582 4.269.552 6.423a33.176 33.176 0 0 1-.552 6.423ZM83.399 414.787a37.655 37.655 0 0 1 0-12.846 37.66 37.66 0 0 1 0 12.846ZM80.695 414.787a34.128 34.128 0 0 1-.552-6.423c-.024-2.154.16-4.305.552-6.423a32.38 32.38 0 0 1 .552 6.423 33.224 33.224 0 0 1-.552 6.423ZM52.708 414.787a34.128 34.128 0 0 1-.552-6.423c-.025-2.154.16-4.305.552-6.423a32.38 32.38 0 0 1 .552 6.423 34.128 34.128 0 0 1-.552 6.423ZM48.647 414.787a34.121 34.121 0 0 1-.552-6.423c-.025-2.154.16-4.305.552-6.423a32.38 32.38 0 0 1 .551 6.423 33.224 33.224 0 0 1-.551 6.423ZM58.49 414.787a34.137 34.137 0 0 1-.551-6.423 32.38 32.38 0 0 1 .551-6.423c.392 2.118.577 4.269.552 6.423a34.128 34.128 0 0 1-.552 6.423ZM95.605 414.787a37.655 37.655 0 0 1 0-12.846c.735 4.25.735 8.595 0 12.846Z"/></g><path opacity=".1" d="M118.339 400.473v3.41l-72.683 2.296v-5.706h72.683Z" fill="#000"/><path d="M47.3 376.647c47.852 8.586 35.216 79.459-12.713 70.873-47.93-8.586-35.205-79.47 12.713-70.873Z" fill="#336EE1"/><path opacity=".1" d="M47.3 376.647c47.852 8.586 35.216 79.459-12.713 70.873-47.93-8.586-35.205-79.47 12.713-70.873Z" fill="#000"/><path d="M42.809 375.852c45.6 8.189 32.964 79.062-12.714 70.873-45.678-8.189-32.964-79.073 12.714-70.873Z" fill="#336EE1"/><path opacity=".1" d="M7.527 412.944c.253 12.636 7.603 24.864 23.65 27.744 37.908 6.799 48.404-52.023 10.561-58.821-.254 0-.496-.089-.75-.111 35.491 7.096 25.316 62.773-10.827 56.284-14.733-2.594-21.85-13.541-22.634-25.096Z" fill="#000"/><path opacity=".1" d="M40.425 389.217a1.211 1.211 0 0 1 .872 1.456l-.475 1.954a16.29 16.29 0 0 1 7.803 5.518 1.385 1.385 0 0 1 .397 1.291 1.28 1.28 0 0 1-1.567.894 1.196 1.196 0 0 1-.784-.552 14.341 14.341 0 0 0-6.511-4.988l-3.4 13.618c7.009 3.399 9.426 6.953 8.245 11.72-1.291 5.154-6.534 7.726-12.659 6.39l-.948 3.797a1.212 1.212 0 0 1-1.457.882 1.234 1.234 0 0 1-.872-1.467l.96-3.841a18.759 18.759 0 0 1-9.767-7.438 1.369 1.369 0 0 1-.287-1.159 1.324 1.324 0 0 1 1.523-.916c.163.036.318.105.454.202.137.096.252.219.34.361a16.134 16.134 0 0 0 8.377 6.787l3.454-13.861c-6.886-3.421-9.237-6.853-8.023-11.709 1.214-4.856 6.434-7.593 12.405-6.258l.463-1.843a1.215 1.215 0 0 1 1.457-.838Zm-5.684 18.22 3.311-13.243c-4.745-1.104-8.564.96-9.436 4.414-.85 3.322.199 5.75 6.092 8.829h.033Zm1.402 3.498-3.31 13.42c4.888 1.104 8.75-.916 9.667-4.613.772-3.355-.42-5.827-6.39-8.807h.033Z" fill="#000"/><path d="M255.626 448.689c2.583.861 76.226.64 79.029-1.103 1.103-.662 1.655-11.4 2.008-24.379.074-2.81.133-5.691.177-8.641.055-3.487.099-7.008.121-10.44.089-15.373-.121-28.914-.121-28.914h-47.962V414.478l.253 8.641s-28.163 12.691-31.022 14.987c-2.858 2.295-5.076 9.689-2.483 10.583Z" fill="#F7A9A0"/><path d="M336.376 431.341c-.375 9.027-.916 15.649-1.743 16.168-2.803 1.776-76.446 1.997-79.029 1.103-2.582-.894-.309-8.255 2.538-10.528 1.612-1.291 11.246-5.882 19.358-9.646-9.16 5.507-25.262 15.561 58.876 2.903Z" fill="#263238"/><path d="M352.809 170.826s-12.956 128.149-13.243 129.772c0 .22-.133 2.681-.254 6.71-.695 22.072-2.428 90.837-2.428 90.837h-52.862s3.454-81.468 5.429-100.428c2.528-24.279 18.442-126.847 18.442-126.847l44.916-.044Z" fill="#37474F"/><path d="M333.242 305.123a1415.45 1415.45 0 0 1 7.35-83.101c1.865-15.572 4.094-31.089 6.313-46.616 0-.133.231-.122.22 0-4.094 27.59-6.996 55.467-9.49 83.266-2.495 27.8-4.238 55.61-5.375 83.476-.64 15.793-1.104 31.585-1.644 47.378a.291.291 0 0 1-.084.203.291.291 0 0 1-.203.084.287.287 0 0 1-.287-.287c.739-28.153 1.545-56.295 3.2-84.403Z" fill="#263238"/><path d="M287.344 389.636c1.427-.131 2.86-.19 4.293-.177 1.578-.055 3.167-.066 4.756-.132 3.068-.11 6.125-.188 9.193-.243a383.66 383.66 0 0 1 18.518.133l5.099.176c1.799.066 3.62.232 5.43.221.132 0 .132.166 0 .166-3.101 0-6.247.275-9.359.386-3.112.11-6.125.165-9.182.209-6.169.078-12.36 0-18.518-.198-1.7-.066-3.399-.088-5.099-.144-.905 0-1.81-.077-2.715-.11-.905-.033-1.611 0-2.416-.077a.112.112 0 0 1-.133-.055.108.108 0 0 1 0-.1.112.112 0 0 1 .133-.055ZM352.809 170.826s-12.956 128.149-13.243 129.772c0 .22-.132 2.681-.254 6.71l-24.941-136.482h38.438Z" fill="#263238"/><path d="M392.815 446.361c2.703-.287 69.692-30.901 71.513-33.649.695-1.037-3.19-11.036-8.233-23.021-1.104-2.593-6.622-14.578-8.31-17.746-7.074-13.762-13.564-25.051-13.564-25.051l-42.433 19.224 12.25 25.085 5.021 10.297 3.786 7.725s-20.406 23.175-22.072 26.486c-1.667 3.311-.651 10.937 2.042 10.65Z" fill="#F7A9A0"/><path d="M464.328 412.712c-1.821 2.792-68.81 33.362-71.513 33.649-2.704.287-3.698-7.394-2.042-10.65.993-1.931 8.586-10.892 14.6-17.856-6.125 8.718-16.3 24.047 53.801-20.726 3.432 8.454 5.694 14.767 5.154 15.583Z" fill="#263238"/><path d="M307.871 170.826s3.476 18.518 16.388 27.932c0 0 28.484 95.295 32.181 106.221 6.379 18.827 40.645 82.615 40.645 82.615l52.896-22.712s-40.337-71.06-44.696-76.534c-2.902-3.631-24.621-80.883-24.356-82.88 3.178-23.673-8.057-34.753-8.057-34.753l-65.001.111Z" fill="#37474F"/><path d="M350.668 177.536a17.658 17.658 0 0 0 6.467 9.292 21.873 21.873 0 0 0 11.742 4.028c.718 0 .773 1.104 0 1.104-8.619 0-17.326-5.518-18.584-14.402-.011-.166.32-.21.375-.022ZM315.993 192.887a48.198 48.198 0 0 1 8.906 4.734c2.958 1.821 5.695 3.973 8.542 5.949.11.077 0 .253-.099.187-2.991-1.722-6.114-3.222-9.083-4.999a57.408 57.408 0 0 1-8.398-5.629c-.1-.088 0-.286.132-.242Z" fill="#263238"/><path d="M314.779 174.92c.464 1.976 1.037 3.929 1.556 5.882.519 1.954.872 3.719 1.446 5.518a9.47 9.47 0 0 0 2.814 4.558c.761.651 1.589 1.214 2.395 1.799.43.309.905.607 1.357.927a8.408 8.408 0 0 1-.187-.795c-.177-.75-.332-1.5-.497-2.207a307.619 307.619 0 0 1-1.037-4.999c-.652-3.311-1.27-6.622-2.108-9.833 0-.133.165-.199.198-.066.972 3.211 2.031 6.367 2.892 9.612.43 1.589 2.041 9.447 2.13 9.999.088.551.154 1.158.198 1.732.101.587.131 1.183.089 1.777a.155.155 0 0 1-.276 0 6.864 6.864 0 0 1-.585-1.699 19.976 19.976 0 0 1-.453-1.689c0-.21-.088-.419-.121-.629-.806-.441-1.556-1.037-2.307-1.523a88.21 88.21 0 0 1-2.416-1.644 8.97 8.97 0 0 1-3.046-4.315 33.745 33.745 0 0 1-1.192-5.651c-.353-2.207-.64-4.491-1.049-6.71-.033-.11.166-.176.199-.044ZM396.942 376.956c1.192-.729 13.707-6.556 16.488-7.825 5.606-2.571 24.996-10.517 26.817-11.179.607-.221.651.11.177.331-2.859 1.401-14.071 6.533-16.863 7.802-5.618 2.561-25.758 10.838-26.542 11.036a.11.11 0 0 1-.082-.062.104.104 0 0 1 .005-.103ZM369.44 173.011a42.019 42.019 0 0 1 5.375 11.224 42.483 42.483 0 0 1 1.964 12.338 37.232 37.232 0 0 1-.452 6.257c-.089.519-.155 1.038-.265 1.545l-.166.773a2.051 2.051 0 0 0-.088.651c.121.96.375 2.008.607 3.002.949 4.028 2.019 8.045 3.079 12.062 4.315 16.035 8.674 32.07 13.243 48.04l3.454 11.963a284.466 284.466 0 0 0 1.81 5.948c.32.971.64 1.975 1.005 2.88.364.905.882 1.821 1.39 2.737 3.907 7.295 8.134 14.457 12.228 21.686 0 0 20.847 35.028 25.14 43.095.199.376.099.618-.287.122-3.73-4.856-17.304-28.374-25.769-42.676-4.238-7.152-8.42-14.347-12.427-21.642-.507-.905-.96-1.865-1.434-2.825-.475-.96-.729-1.987-1.104-2.991a232.732 232.732 0 0 1-1.854-5.959 683.227 683.227 0 0 1-3.509-11.974c-4.47-16.002-8.884-32.005-12.934-48.15-1.005-4.039-2.009-8.068-2.903-12.14-.21-1.026-.452-2.008-.574-3.112a2.671 2.671 0 0 1 .122-.883l.165-.75c.122-.497.188-1.016.287-1.523.344-2.028.528-4.08.552-6.136a43.832 43.832 0 0 0-6.655-23.562Z" fill="#263238"/><path d="M278.018 135.698a2.909 2.909 0 0 0 1.424 2.627c.782.5 1.592.953 2.428 1.357a82.604 82.604 0 0 1 .298-8.773c.198-3.366.64-6.622 1.158-9.933h.078c-.276 3.311-.431 6.765-.607 10.131-.166 2.958-.089 5.96-.265 8.906a33.13 33.13 0 0 0 2.626 1.038v-3.101c0-3.112.287-6.18.464-9.282h.099c-.121 3.024 0 6.081 0 9.105v3.499l1.821.562 1.203.32c0-2.041.177-4.094.254-6.091.132-3.234.463-6.445.64-9.668a.086.086 0 0 1 .01-.081.087.087 0 0 1 .032-.028.086.086 0 0 1 .041-.01.086.086 0 0 1 .072.038.082.082 0 0 1 .015.039.085.085 0 0 1-.004.042c-.166 3.211-.111 6.456-.188 9.668-.055 2.074 0 4.193-.088 6.29a48.542 48.542 0 0 0 16.454.817 74.35 74.35 0 0 0 9.447-1.711c.751-.176 2.671-.706 4.558-1.258 0-.982.066-1.953.077-2.891 0-2.152.155-4.327.111-6.467h.088c.11 2.152.353 4.293.397 6.467 0 .86.055 1.765.066 2.67l1.899-.585c-.21-4.061.055-8.188.077-12.239 0-.099.121-.099.132 0 .155 3.973.563 8.013.508 12.008a6.932 6.932 0 0 0 1.258-.486c.938-.739.309-16.808.254-20.56-.111-6.986 0-41.815-2.108-48.558a20.674 20.674 0 0 0-11.842-13.453c-2.781-1.18-6.025-.905-8.994-.916-14.347-.066-19.037 10.087-20.372 27.92-.508 6.898-2.649 40.161-3.179 47.069-.066 1.832-.309 3.686-.342 5.518Z" fill="#DBDBDB"/><path d="M317.946 108.848c3.962 13.243-5.153 60.477-13.519 70.1-12.437 14.347-32.434 22.679-41.462 26.487-3.929 1.666-19.423-25.99-15.252-27.844 9.138-4.072 30.438-14.115 32.755-16.62 2.318-2.506 15.351-27.094 20.792-41.021 7.339-18.662 14.689-17.79 16.686-11.102Z" fill="#F7A9A0"/><path d="M261.541 204.728c-2.747 1.733-16.046 8.586-20.173 9.657-4.128 1.07-16.223 3.311-17.371.243-1.148-3.068 2.34-4.018 2.34-4.018s-5.253.133-6.125-3.068c-.872-3.2 4.602-4.48 4.602-4.48s-5.408-.254-6.048-3.51c-.64-3.255 5.077-3.619 5.077-3.619s-4.956 0-4.349-2.903c.718-3.498 9.856-2.461 14.347-3.995 1.016-.342 20.053-8.509 20.053-8.509l7.647 24.202Z" fill="#F7A9A0"/><path d="M223.357 195.966c6.721.739 9.789-.1 15.781-3.013.122-.055.232.11.111.177-5.606 3.388-9.303 4.988-15.947 3.156-.32-.077-.265-.32.055-.32ZM224.284 202.996c7.052.165 10.385-.718 16.885-3.311.088 0 .166.11.077.154-6.169 3.068-9.932 4.591-16.918 3.499-.32-.033-.364-.353-.044-.342ZM226.668 210.467c6.831-.331 10.539-1.104 16.554-4.414a.122.122 0 0 1 .171.038.13.13 0 0 1 .016.094.12.12 0 0 1-.055.077c-5.772 3.984-10.385 5.022-16.62 4.415-.463-.044-.497-.188-.066-.21Z" fill="#263238"/><path d="M255.229 174.148s-8.476.066-12.195.916c-3.719.849-16.41 9.115-14.777 11.952 2.108 3.675 10.363.342 14.203-1.81 0 0 4.856 8.486 11.301 7.383 6.445-1.104 1.468-18.441 1.468-18.441Z" fill="#F7A9A0"/><path d="M229.14 187.832c4.337 1.965 9.182-1.192 13.066-3.002a.39.39 0 0 1 .179-.051.367.367 0 0 1 .181.041.378.378 0 0 1 .203.297c2.274 3.433 6.478 7.593 10.815 7.725a.1.1 0 0 1 .071.17.099.099 0 0 1-.071.029c-4.657.53-9.126-3.233-11.378-7.14-3.939 1.92-8.95 4.878-13.099 2.008.033-.044.033-.088.033-.077Z" fill="#263238"/><path d="M322.118 110.348c1.49 12.272-4.911 40.006-4.911 40.006l-7.052-3.256-23.319-10.727s11.588-18.882 20.152-30.249a30.032 30.032 0 0 1 3.31-3.797c6.368-6.19 10.551-2.549 11.82 8.023Z" fill="#336EE1"/><path d="M317.24 144.097c-4.138-2.097-21.41-10.076-25.261-11.555-.276-.099-.398 0-.144.176 12.261 6.622 21.145 9.679 25.317 11.533.099.011.187-.154.088-.154Z" fill="#263238"/><path opacity=".1" d="m317.196 150.343-7.041-3.245-19.015-8.762 21.774-38.096c4.889-2.892 8.1 1.103 9.193 10.12 1.501 12.261-4.911 39.983-4.911 39.983Z" fill="#000"/><path d="m305.84 150.718 2.031 20.13 65.001-.111s-23.065-60.697-41.881-72.01c-9.414-5.639-17.658-2.593-21.355 4.415-.938 1.766-13.143 25.383-12.448 34.013.629 7.571 8.652 13.563 8.652 13.563Z" fill="#336EE1"/><path d="M323.211 146.756a52.014 52.014 0 0 0-7.604 1.369c-1.236.342-2.45.728-3.653 1.103a55.69 55.69 0 0 1-1.821.585 8.498 8.498 0 0 1-1.964.398c-.056 0-.056.088 0 .088.628.044 1.258.044 1.887 0a14.508 14.508 0 0 0 1.799-.375c1.258-.331 2.494-.718 3.752-1.104 2.527-.684 5.054-1.379 7.626-1.887.132.011.099-.188-.022-.177ZM329.567 148.931a58.326 58.326 0 0 0-6.367-.21c-1.104 0-2.119.121-3.179.243-.507.055-1.015.121-1.512.198-.496.078-1.103.232-1.655.298-.055 0-.055.1 0 .089h1.578l1.589-.067c1.104 0 2.119-.066 3.179-.121 2.118-.11 4.237-.188 6.356-.221.155-.033.144-.198.011-.209Z" fill="#263238"/><path d="M321.235 99.567c.11 1.202-2.803 10.197-7.968 11.642-1.677.475-4.657-8.597-4.657-8.597l-.375-.618-5.22-8.663 8.663-10.727 1.28-1.468s1.269 2.473 2.814 5.519l.221.43c.099.176.188.342.265.508l.706 1.39c.177.364.353.706.519 1.104l.541 1.103a66 66 0 0 1 3.211 8.377Z" fill="#F7A9A0"/><path d="M315.772 86.71a20.29 20.29 0 0 1-7.537 15.307l-5.22-8.686 8.663-10.727 1.28-1.468s1.269 2.462 2.814 5.574Z" fill="#263238"/><path d="M285.269 82.593c4.061 17.294 14.876 16.82 18.606 15.936 3.388-.794 14.811-3.95 12.559-21.564-2.251-17.614-11.576-21.156-19.412-19.788-7.835 1.369-15.814 8.123-11.753 25.416Z" fill="#F7A9A0"/><path d="M287.024 78.841c.386-.176.717-.397 1.103-.607.405-.157.747-.444.971-.816a.616.616 0 0 0-.231-.729 1.557 1.557 0 0 0-1.579.1c-.506.252-.9.685-1.103 1.213a.67.67 0 0 0 .168.67.673.673 0 0 0 .671.17ZM298.457 75.674c-.406.063-.815.103-1.225.121-.425.093-.869.05-1.269-.121a.627.627 0 0 1-.221-.74 1.558 1.558 0 0 1 1.369-.805c.56-.09 1.135.032 1.611.342a.675.675 0 0 1-.265 1.203Z" fill="#DBDBDB"/><path d="M297.144 80.309s.099 0 .121.077c.287 1.17.828 2.461 1.986 2.55v.066c-1.324.187-2.019-1.534-2.107-2.693Z" fill="#263238"/><path d="M297.839 78.797c1.821-.673 3.035 3.035 1.346 3.664-1.688.629-2.88-3.101-1.346-3.664Z" fill="#263238"/><path d="M298.667 78.753c.397.1.838.375 1.236.276.397-.1.684-.596.86-1.104h.078a1.439 1.439 0 0 1-.519 1.887c-.662.32-1.368-.143-1.788-.805-.121-.023-.066-.298.133-.254ZM290.61 81.964s-.077.088-.055.133c.419 1.103.706 2.505-.199 3.233v.066c1.236-.607.828-2.417.254-3.432Z" fill="#263238"/><path d="M289.176 81.114c-1.887.486-.784 4.227.96 3.785 1.744-.44.629-4.182-.96-3.785Z" fill="#263238"/><path d="M288.469 81.589c-.231.287-.419.728-.772.86-.353.133-.817-.165-1.192-.485 0 0-.066 0-.055.066.198.718.651 1.39 1.379 1.336.729-.055.949-.817.905-1.578 0-.144-.165-.31-.265-.199ZM300.3 89.138c-.177.364-.309.838-.707 1.026-.42.152-.867.212-1.313.176 0 0-.066 0 0 .078a1.61 1.61 0 0 0 1.667.066 1.281 1.281 0 0 0 .518-1.335.082.082 0 0 0-.137-.068.08.08 0 0 0-.028.056ZM294.164 86.489s.309 1.799.563 2.604c0 .078.231 0 .507 0a4.06 4.06 0 0 0 3.311-2.626c0-.1-.099-.144-.154-.078a6.081 6.081 0 0 1-3.212 2.12c-.132-.2-.419-3.09-.552-3.069a7.706 7.706 0 0 0-1.71 1.005c-.74-3.73-.883-7.549-1.678-11.246a.109.109 0 0 0-.11-.11.109.109 0 0 0-.11.11 61.514 61.514 0 0 0 1.28 12.14c.099.474 1.589-.63 1.865-.85Z" fill="#263238"/><path d="M295.102 88.431a5 5 0 0 0 2.207 1.104c.456.084.927.022 1.346-.177.916-.43.773-1.324.453-2.041a5.396 5.396 0 0 0-.662-1.104 6.403 6.403 0 0 1-3.344 2.218Z" fill="#263238"/><path d="M297.342 89.568a2.21 2.21 0 0 0 1.347-.177c.916-.43.772-1.324.452-2.041a2.307 2.307 0 0 0-1.799 2.218Z" fill="#FF9ABB"/><path d="M316.324 77.153a7.22 7.22 0 0 1-5.937-3.973 18.882 18.882 0 0 1-9.447-2.925c.243.298 1.997 2.417 2.924 3.465-11.135 2.208-17.48-4.414-17.48-4.414a19.02 19.02 0 0 0-1.91 8.354s-2.604-6.323-1.026-11.874c1.931-6.799 14.876-13.575 23.827-9.26 9.645 4.591 9.049 20.627 9.049 20.627Z" fill="#DBDBDB"/><path d="M295.356 75.133c2.024.249 4.073.193 6.081-.166a17.492 17.492 0 0 1-9.436-1.578 16.955 16.955 0 0 1-3.477-2.207 11.624 11.624 0 0 1-2.946-3.41c0-.1-.199 0-.155.077a13.344 13.344 0 0 0 2.45 3.763 12.34 12.34 0 0 0 3.664 2.516c1.215.545 2.501.917 3.819 1.104" fill="#DBDBDB"/><path d="M313.377 77.539s1.954-6.478 4.779-5.949c2.825.53 2.56 9.072.099 11.036a2.995 2.995 0 0 1-3.382.47 2.998 2.998 0 0 1-.944-.746l-.552-4.811Z" fill="#F7A9A0"/><path d="M318.024 74.03s.066 0 0 .076c-1.7 1.446-2.141 3.61-2.208 5.74a1.65 1.65 0 0 1 .824-1.115 1.648 1.648 0 0 1 1.384-.089c.066 0 0 .11 0 .122a1.845 1.845 0 0 0-1.733 1.247 8.949 8.949 0 0 0-.408 1.865c0 .21-.387.21-.387 0-.883-2.55-.088-6.699 2.528-7.847Z" fill="#263238"/><path d="m194.95 241.335 9.171 8.453-4.844 11.091-4.327-19.544Z" fill="#37474F"/><path d="m230.111 241.18 15.473 8.575-42.864 3.3-.243-4.724 27.634-7.151ZM261.321 228.423s6.743-3.013 7.581-8.123c2.671-15.925-28.274-38.957-32.545-34.267-4.271 4.691 3.819 27.105 3.819 27.105l21.145 15.285Zm-1.766-3.102-16.499-11.896s-7.206-19.379-3.884-23.021c3.321-3.642 28.362 16.2 26.276 28.605-.662 3.973-5.893 6.312-5.893 6.312Z" fill="#7B61FF"/><path d="m243.95 263.627 28.937-29.731-48.746-38.008-18.397 19.236 38.206 48.503Z" fill="#37474F"/><path d="m224.141 195.889-.232-6.17-24.003 24.136 5.838 1.269 18.397-19.235Z" fill="#7B61FF"/><path d="M193.218 243.652s-5.904-2.604-5.938-.066c-.033 2.538 5.938.066 5.938.066ZM196.142 251.477s-6.257-1.578-5.86.938c.398 2.516 5.86-.938 5.86-.938ZM186.762 250.362s-6.423.519-5.242 2.77 5.242-2.77 5.242-2.77ZM187.049 257.546s-6.368 1.104-4.989 3.201c1.38 2.097 4.989-3.201 4.989-3.201ZM181.376 247.139s-6.423-.651-5.661 1.766c.761 2.417 5.661-1.766 5.661-1.766ZM177.58 255.24s-6.302 1.346-4.834 3.421c1.468 2.075 4.834-3.421 4.834-3.421ZM197.864 260.593s-5.099 3.95-2.88 5.186c2.218 1.236 2.88-5.186 2.88-5.186ZM191.276 276.594s-2.208 6.07.375 5.916c2.582-.155-.375-5.916-.375-5.916ZM195.624 269.487s-3.311 5.518-.773 5.882c2.538.365.773-5.882.773-5.882ZM194.101 258.584s-6.07 2.207-4.326 4.061c1.743 1.854 4.326-4.061 4.326-4.061ZM189.488 267.082s-4.106 4.977-1.667 5.694c2.439.717 1.667-5.694 1.667-5.694Z" fill="#DBDBDB"/><path d="M335.472 106.574c5.164 13.674.187 63.567-7.383 74.018-11.279 15.528-30.691 25.163-39.454 29.566-3.819 1.92-19.147-26.133-15.097-28.263 8.829-4.657 26.674-16.345 28.782-19.07 2.107-2.726 13.077-29.047 17.315-43.868 5.695-19.898 13.243-19.313 15.837-12.383Z" fill="#F7A9A0"/><path d="M242.769 202.742a4.72 4.72 0 0 0 3.896 3.708 7.032 7.032 0 0 0-.21 4.756c.983 2.704 5.662 2.351 5.662 2.351a8.603 8.603 0 0 0 .563 5.055c1.203 2.494 5.981 2.814 5.981 2.814a7.502 7.502 0 0 0 3.311 4.116c4.271 2.329 10.738-1.302 14.865-3.576 4.128-2.273 13.74-12.581 15.771-14.346l-14.347-26.663s-21.432 4.911-25.912 8.266c-3.797 2.814-10.176 9.888-9.58 13.519Z" fill="#F7A9A0"/><path d="M246.654 206.329c3.311-3.973 7.571-6.754 11.698-9.778.088-.066.199.077.099.143-4.127 2.958-7.625 6.688-11.632 9.811-.11.077-.253-.077-.165-.176ZM252.029 213.469a13.584 13.584 0 0 1 2.803-2.13 117.303 117.303 0 0 1 3.156-1.998c2.13-1.302 4.282-2.56 6.478-3.752.099-.055.199.088.099.144a178.27 178.27 0 0 0-6.279 4.028l-3.079 2.108a15.472 15.472 0 0 1-2.969 1.876.178.178 0 0 1-.218-.052.174.174 0 0 1 .009-.224ZM258.75 221.349a9.252 9.252 0 0 1 2.615-1.777l2.936-1.744c1.953-1.17 3.906-2.34 5.816-3.576.088-.055.198.089.099.144-1.931 1.269-3.852 2.56-5.794 3.807l-2.869 1.832a9.313 9.313 0 0 1-2.748 1.424.074.074 0 0 1-.039-.008.08.08 0 0 1-.027-.028c-.006-.012-.008-.026-.006-.039a.064.064 0 0 1 .017-.035Z" fill="#263238"/><path d="M308.776 148.842c-1.49 3.973-3.046 7.902-4.845 11.753a9.905 9.905 0 0 1-1.711 2.759 25.809 25.809 0 0 1-2.373 2.208c-1.644 1.357-3.366 2.615-5.098 3.829-3.465 2.461-7.063 4.701-10.672 6.92-3.609 2.218-7.262 4.414-10.948 6.467h-.11l-10.661 3.178-5.308 1.655c-.861.287-1.766.574-2.582.905-.786.402-1.526.886-2.208 1.446a40.054 40.054 0 0 0-7.537 7.979 8.204 8.204 0 0 0-1.634 5.01c.09.862.514 1.655 1.181 2.208.712.56 1.549.939 2.439 1.103h.144v.144a10.405 10.405 0 0 0-.508 2.858c-.095.979.159 1.96.717 2.77a4.259 4.259 0 0 1-.871-2.77c-.008-.993.13-1.982.408-2.936l.099.166a5.997 5.997 0 0 1-2.626-1.104 3.77 3.77 0 0 1-1.424-2.494 8.507 8.507 0 0 1 1.578-5.418 40.199 40.199 0 0 1 7.505-8.333 11.26 11.26 0 0 1 2.416-1.6c.905-.386 1.777-.662 2.66-.971l5.308-1.7 10.65-3.31h-.121c7.361-4.139 14.656-8.454 21.685-13.122 1.755-1.17 3.488-2.373 5.143-3.675a27.762 27.762 0 0 0 2.362-2.053 9.915 9.915 0 0 0 1.677-2.571c1.888-3.532 3.554-7.427 5.265-11.301Z" fill="#263238"/><path d="M320.319 113.03c8.332-18.099 17.658-14.777 18.596 3.002a307.599 307.599 0 0 1-.53 34.819l-31.099-8.509s7.703-17.735 13.033-29.312Z" fill="#336EE1"/><path d="M319.525 114.984c-1.104 2.372-2.318 4.712-3.51 7.063.21-1.104.353-2.208.464-3.311h-.078c-.165.883-.364 1.755-.518 2.637-.067.431-.144.85-.221 1.27v.276a181.358 181.358 0 0 0-2.704 5.517 272.159 272.159 0 0 0-3.013 6.688c-.993 2.274-1.909 4.955-3.024 7.218-.088.198 2.759.772 3.035.861.276.088.409-.177.122-.21s-2.605-.938-2.638-.949c.982-2.207 2.207-4.415 3.311-6.622s2.108-4.414 3.112-6.621c2.042-4.525 3.83-9.171 5.849-13.707l-.187-.11ZM341.012 125.435c-.276.927-.585 1.854-.806 2.792-.099.386-.188.772-.276 1.103.077-3.211.132-6.422.188-9.634h-.056c-.375 5.253-.761 10.506-1.037 15.759a148.155 148.155 0 0 0-.508 15.164 17.738 17.738 0 0 0-2.847-.408c1.024.429 2.1.723 3.201.871.574-5.259.872-10.545.894-15.836.055-1.446.088-2.892.121-4.337.165-.894.408-1.777.64-2.66.232-.883.397-1.898.585-2.847.011 0-.077-.067-.099.033Z" fill="#263238"/><path d="M337.05 146.16c-4.415-1.5-22.536-6.985-26.487-7.912-.287-.067-.397.088-.11.198a254.295 254.295 0 0 0 26.53 7.858c.111.055.177-.11.067-.144Z" fill="#263238"/><path d="M159.492 204.375c-1.457-20.637-31.375-25.99-32.821-46.627a599.51 599.51 0 0 0 14.347-2.737c4.513 14.998 24.952 21.454 30.624 35.845a433.435 433.435 0 0 1-12.15 13.519Z" fill="#7B61FF"/><path d="M155.199 182.215c-2.207 1.677-6.688.585-10.263-2.34-3.576-2.924-4.139-6.423-1.49-7.725 2.648-1.302 7.107-.177 10.219 2.362 3.112 2.538 3.796 6.003 1.534 7.703ZM140.289 168.486a2.47 2.47 0 0 1-2.428-1.048c-.684-.861-.662-1.766 0-1.998a2.494 2.494 0 0 1 2.34 1.104c.651.827.728 1.677.088 1.942ZM161.622 188.517c-.475.452-1.379.11-2.086-.74-.706-.85-.938-1.843-.452-2.262.485-.42 1.479-.133 2.207.673.728.806.817 1.865.331 2.329ZM141.514 156.347a935.605 935.605 0 0 1-14.644 3.233 24.034 24.034 0 0 1-.199-1.832 599.51 599.51 0 0 0 14.347-2.737c.176.453.331.894.496 1.336ZM159.492 204.375c0-.618-.11-1.236-.21-1.832 4.216-4.469 8.134-8.829 11.842-12.978.198.419.386.85.563 1.291a503.553 503.553 0 0 1-12.195 13.519Z" fill="#37474F"/><path d="M160.309 203.492c-.265.298-.541.585-.817.883-1.457-20.637-31.375-25.99-32.821-46.627l.872-.165c1.71 20.251 30.967 25.724 32.766 45.909ZM171.687 190.856c-.243.276-.475.552-.717.817-5.518-14.722-26.487-21.145-30.835-36.474l.927-.188c4.514 14.998 24.952 21.454 30.625 35.845Z" fill="#37474F"/><path d="M128.768 163.101a21.248 21.248 0 0 1-.993-3.708l1.997-.431c.42 2.064.155 3.819-1.004 4.139ZM161.82 199.85l-1.721 1.854a20.202 20.202 0 0 0-1.026-3.708c.871-.927 2.262-.187 2.747 1.854ZM168.95 187.6a23.808 23.808 0 0 1 1.479 2.759l-1.578 1.766c-.663-1.677-.74-3.631.099-4.525ZM138.49 157.031l2.086-.464c.355.982.779 1.937 1.269 2.859-1.158.331-2.792-.673-3.355-2.395Z" fill="#37474F"/><path d="M152.705 175.229c.143.132.188.287.088.342l-.298.188a6.079 6.079 0 0 1 1.545 2.041c.055.122.066.199 0 .243a.45.45 0 0 1-.474-.132.486.486 0 0 1-.166-.199 4.922 4.922 0 0 0-1.258-1.755l-2.097 1.303c1.589 1.655 1.943 2.582 1.236 3.068-.706.485-2.395 0-3.995-1.325l-.585.364c-.088.067-.309 0-.474-.132-.166-.132-.221-.309-.133-.364l.607-.364a7.223 7.223 0 0 1-2.041-2.759v-.21a.541.541 0 0 1 .496.154.445.445 0 0 1 .166.21 5.847 5.847 0 0 0 1.71 2.417l2.141-1.313c-1.545-1.645-1.843-2.505-1.103-2.936.739-.43 2.395.077 3.829 1.225l.276-.176c.166-.067.375-.011.53.11Zm-3.123 1.545 2.063-1.258c-1.103-.916-2.328-1.28-2.88-.96-.552.32-.486.805.817 2.218Zm.077.717-2.064 1.291c1.258 1.016 2.483 1.413 3.035 1.038s.386-.894-.949-2.329h-.022ZM146.613 80.982c4.768-19.865-17.989-22.59-13.243-42.51a29.39 29.39 0 0 0 10.252 2.77c2.748 12.05 17.194 16.774 13.541 32.876l-10.55 6.864Z" fill="#7B61FF"/><path d="M149.438 62.43c-2.207.784-5.463-.75-7.526-3.31-2.064-2.56-1.556-5.055.949-5.518a8.828 8.828 0 0 1 7.725 3.145c1.744 2.273 1.059 4.922-1.148 5.683ZM141.106 50.589a2.008 2.008 0 0 1-1.755-1.17c-.375-.728-.176-1.38.375-1.412a2.21 2.21 0 0 1 1.7 1.214c.386.695.265 1.29-.32 1.368ZM152.208 68.522c-.463.22-.982-.287-1.236-1.104-.254-.816-.132-1.6.353-1.798.486-.199 1.104.231 1.358 1.026a1.65 1.65 0 0 1-.475 1.876ZM143.931 42.312a39.638 39.638 0 0 1-10.892-2.075c.099-.574.221-1.17.364-1.766a29.39 29.39 0 0 0 10.252 2.77c.078.365.177.729.276 1.07ZM146.613 80.982a22.33 22.33 0 0 0 .353-1.766l10.484-6.533a22.9 22.9 0 0 1-.287 1.434l-10.55 6.865Z" fill="#37474F"/><path d="m147.275 80.552-.662.43c4.768-19.865-17.989-22.59-13.243-42.51l.508.264c-4.062 19.28 18.099 22.139 13.397 41.816ZM157.163 74.118l-.662.43c3.719-16.3-11.146-20.968-13.618-33.406l.772.1c2.715 12.05 17.161 16.774 13.508 32.876Z" fill="#37474F"/><path d="M133.403 43.923a21.407 21.407 0 0 1 .199-3.487c.419.154.861.298 1.313.42-.132 1.897-.684 3.177-1.512 3.067ZM149.085 77.88l-1.457.906c.204-1.174.304-2.363.298-3.554.806-.43 1.501.64 1.159 2.649ZM157.086 70.156a20.99 20.99 0 0 1-.298 3.001l-1.457.905c.298-1.843.971-3.51 1.755-3.906ZM141.437 42.08l1.7.177c.218.782.479 1.553.783 2.306a2.916 2.916 0 0 1-2.483-2.483Z" fill="#37474F"/><path d="M149.582 57.122c.077.1.066.22 0 .243l-.298.088c.359.485.57 1.064.607 1.667 0 .099 0 .154-.078.176a.354.354 0 0 1-.342-.165.307.307 0 0 1-.066-.177 2.77 2.77 0 0 0-.474-1.423l-2.086.584c.783 1.402.772 2.108.066 2.34-.706.232-1.909-.408-2.836-1.534l-.585.166a.387.387 0 0 1-.353-.166c-.089-.121-.089-.243 0-.265l.596-.165a3.973 3.973 0 0 1-.861-2.208c0-.077 0-.121.077-.143a.495.495 0 0 1 .375.176c.04.051.063.113.067.177.023.697.266 1.37.695 1.92l2.141-.596c-.784-1.357-.784-1.997 0-2.207a3.212 3.212 0 0 1 2.77 1.413l.287-.077c.055-.033.209.066.298.176Zm-2.991.596 2.042-.563a2.354 2.354 0 0 0-2.064-1.103c-.53.132-.629.485.022 1.666Zm-.166.508-2.063.585c.728.894 1.6 1.357 2.152 1.191.551-.165.585-.573-.089-1.776ZM95.87 208.271c4.778-19.865-17.978-22.591-13.244-42.511a29.31 29.31 0 0 0 10.242 2.77c2.77 12.052 17.172 16.808 13.519 32.876l-10.517 6.865Z" fill="#7B61FF"/><path d="M98.695 189.752c-2.207.784-5.452-.75-7.516-3.31-2.064-2.561-1.556-5.055.95-5.518a8.83 8.83 0 0 1 7.724 3.134c1.733 2.251 1.06 4.9-1.158 5.694ZM90.374 177.878a1.997 1.997 0 0 1-1.755-1.17c-.375-.729-.177-1.38.375-1.413a2.205 2.205 0 0 1 1.689 1.214c.397.695.276 1.302-.31 1.369ZM101.476 195.811c-.464.221-.982-.287-1.247-1.103-.265-.817-.122-1.601.364-1.799.486-.199 1.104.232 1.346 1.026a1.621 1.621 0 0 1-.463 1.876ZM93.199 169.612a39.597 39.597 0 0 1-10.893-2.086c.1-.574.21-1.104.365-1.766a29.31 29.31 0 0 0 10.241 2.77c.088.364.176.729.287 1.082ZM95.87 208.271c.154-.596.264-1.192.364-1.766l10.484-6.522c-.077.463-.177.938-.287 1.424l-10.561 6.864Z" fill="#37474F"/><path d="m96.543 207.84-.674.431c4.779-19.865-17.977-22.591-13.243-42.511l.497.265c-4.072 19.302 18.121 22.149 13.42 41.815ZM106.431 201.406l-.662.431c3.719-16.3-11.147-20.969-13.619-33.406l.762.099c2.77 12.052 17.172 16.808 13.519 32.876Z" fill="#37474F"/><path d="M82.67 171.212a20.036 20.036 0 0 1 .2-3.476c.419.143.86.287 1.313.419-.133 1.887-.663 3.167-1.512 3.057ZM98.353 205.192l-1.457.905a21.34 21.34 0 0 0 .298-3.554c.806-.441 1.5.629 1.159 2.649ZM106.354 197.389a21.126 21.126 0 0 1-.298 3.002l-1.457.905c.298-1.788.938-3.454 1.755-3.907ZM90.694 169.38l1.71.166c.207.786.469 1.557.784 2.306a2.931 2.931 0 0 1-2.494-2.472Z" fill="#37474F"/><path d="M98.838 184.411c.089.111.078.221 0 .243l-.298.088c.355.488.565 1.065.607 1.667 0 .099 0 .154-.077.176a.352.352 0 0 1-.342-.165.255.255 0 0 1-.066-.177 2.772 2.772 0 0 0-.475-1.424l-2.086.596c.784 1.391.773 2.108.067 2.329-.707.221-1.91-.408-2.837-1.534l-.585.166a.39.39 0 0 1-.353-.166c-.088-.121-.088-.243 0-.265l.596-.165a4.053 4.053 0 0 1-.872-2.208c0-.077 0-.121.089-.143a.46.46 0 0 1 .364.177c.044.048.072.11.077.176.024.697.267 1.37.695 1.92l2.141-.585c-.783-1.368-.783-2.008 0-2.207.543-.019 1.08.1 1.564.347a3.19 3.19 0 0 1 1.195 1.066l.287-.077a.36.36 0 0 1 .31.165Zm-2.99.596 2.052-.563a2.403 2.403 0 0 0-2.075-1.103c-.518.143-.618.485.023 1.666Zm-.155.508-2.064.585c.729.894 1.59 1.357 2.208 1.192.618-.166.53-.574-.144-1.777ZM163.068 314.702c-3.587-25.78-31.762-18.386-35.316-44.144 3.764.463 8.344-.155 13.42-1.468 8.829 12.967 28.12 11.919 31.254 32.622a3413.39 3413.39 0 0 0-9.358 12.99Z" fill="#7B61FF"/><path d="M157.814 291.482c-2.207 1.931-6.798 1.644-10.418-.386-3.619-2.031-4.182-5.264-1.445-7.008a11.184 11.184 0 0 1 10.616.121c3.046 1.854 3.499 5.298 1.247 7.273ZM142.463 281.296a2.58 2.58 0 0 1-2.626-.574c-.784-.695-.85-1.545-.21-1.843a2.79 2.79 0 0 1 2.561.651c.783.629.927 1.413.275 1.766ZM163.917 297.353c-.441.486-1.302.122-1.975-.717s-.894-1.821-.419-2.295c.474-.475 1.434-.232 2.074.584a2.082 2.082 0 0 1 .32 2.428ZM141.956 270.194a50.129 50.129 0 0 1-13.85 2.582 38.723 38.723 0 0 1-.398-2.207c3.764.463 8.333-.155 13.42-1.468.265.342.541.728.828 1.093ZM163.068 314.702c-.1-.784-.232-1.534-.387-2.208l9.37-12.592c.118.589.228 1.196.331 1.821a18018.53 18018.53 0 0 0-9.314 12.979Z" fill="#37474F"/><path d="M163.652 313.885c-.187.276-.386.541-.584.817-3.587-25.78-31.762-18.386-35.316-44.144l.729.077c4.05 24.71 31.607 17.79 35.171 43.25ZM172.382 301.679l-.585.817c-3.167-20.968-22.933-19.644-31.618-33.207l.949-.232c8.862 12.989 28.12 11.886 31.254 32.622Z" fill="#37474F"/><path d="M130.247 276.981a26.606 26.606 0 0 1-1.38-4.216c.574 0 1.104 0 1.744-.11.728 2.295.695 4.061-.364 4.326ZM164.569 309.912l-1.303 1.744a25.887 25.887 0 0 0-1.291-4.337c.74-.905 2.053.033 2.594 2.593ZM170.418 296.956a26.576 26.576 0 0 1 1.037 3.697l-1.302 1.744c-.475-2.252-.475-4.514.265-5.441ZM138.899 271.076l2.097-.596c.609.837 1.277 1.63 1.997 2.373a3.707 3.707 0 0 1-4.094-1.777Z" fill="#37474F"/><path d="M155.508 285.081c.154.1.188.232.088.309l-.32.243a4.112 4.112 0 0 1 1.501 1.7v.242a.48.48 0 0 1-.485 0 .306.306 0 0 1-.155-.176 3.554 3.554 0 0 0-1.225-1.468l-2.207 1.666c1.589 1.292 1.898 2.141 1.17 2.726-.729.585-2.45.409-4.062-.485l-.618.463a.5.5 0 0 1-.496 0c-.166-.099-.221-.243-.122-.32l.629-.474a5.164 5.164 0 0 1-2.041-2.208v-.198a.547.547 0 0 1 .518 0 .332.332 0 0 1 .166.176c.352.812.95 1.491 1.711 1.943l2.262-1.689c-1.556-1.258-1.854-2.008-1.026-2.582.827-.574 2.494-.442 3.928.386l.298-.232a.468.468 0 0 1 .486-.022Zm-3.256 2.108 2.208-1.622a3.032 3.032 0 0 0-2.958-.331c-.607.386-.563.85.75 1.953Zm0 .673-2.207 1.645c1.28.728 2.516.872 3.101.408.585-.463.508-.938-.849-2.053h-.045ZM111.75 217.707c-6.39 23.032-32.004 29.444-38.394 52.476A1720.842 1720.842 0 0 1 62.243 253c7.725-16.554 25.901-24.081 33.847-40.447a550.484 550.484 0 0 0 15.66 5.154Z" fill="#7B61FF"/><path d="M92.007 232.771c2.76 1.887 2.207 6.202-1.468 9.513-3.675 3.31-8.31 4.204-10.594 1.887-2.285-2.318-1.7-6.622 1.457-9.513 3.156-2.892 7.868-3.752 10.605-1.887ZM75.927 247.835c.497.574.243 1.787-.54 2.748-.784.96-1.755 1.28-2.207.662a2.494 2.494 0 0 1 .474-2.803c.728-.894 1.777-1.148 2.273-.607ZM98.253 225.189c.674.353.618 1.457-.154 2.406-.773.949-1.987 1.39-2.649 1.004-.662-.386-.54-1.435.22-2.351.762-.916 1.91-1.412 2.583-1.059ZM62.971 251.521c3.561 5.452 7.24 10.992 11.036 16.62a29.187 29.187 0 0 0-.629 2.042c-3.855-5.886-7.56-11.61-11.113-17.172.232-.508.453-.994.706-1.49ZM111.75 217.707a50.364 50.364 0 0 1-.629 2.052 593.207 593.207 0 0 1-15.781-5.738c.265-.486.519-.972.75-1.468a550.484 550.484 0 0 0 15.66 5.154Z" fill="#37474F"/><path d="m110.79 217.408.96.298c-6.389 23.032-32.004 29.444-38.394 52.476l-.728-1.103c6.522-22.58 31.618-29.113 38.162-51.671ZM96.09 212.52l1.016.353c-7.913 16.73-26.487 24.279-34.212 41.164l-.684-1.104c7.736-16.498 25.934-24.014 33.88-40.413Z" fill="#37474F"/><path d="M75.023 262.921a40.005 40.005 0 0 0-1.755 4.15l-1.567-2.34c.872-2.295 2.483-3.002 3.322-1.81ZM107.998 218.656l2.207.761a37.785 37.785 0 0 1-1.754 4.15c-1.27-.519-1.336-2.627-.453-4.911ZM94.501 217.552a42.188 42.188 0 0 0 1.843-3.156l2.207.838c-.894 1.888-2.803 2.859-4.05 2.318ZM65.145 254.832l-1.545-2.274c.552-1.103 1.104-2.152 1.8-3.178.871 1.181.65 3.542-.255 5.452Z" fill="#37474F"/><path d="M82.582 235.53c.155-.144.376-.188.475-.1l.32.254a7.97 7.97 0 0 1 2.649-1.479c.165-.055.276-.077.353 0 .077.078.066.287-.1.442a.597.597 0 0 1-.264.154 7.126 7.126 0 0 0-2.307 1.225l2.207 1.821c2.13-1.501 3.311-1.876 4.172-1.269.86.607.375 2.207-1.192 3.686l.618.508c.1.088 0 .287-.122.441-.12.155-.397.21-.496.122l-.618-.519a9.926 9.926 0 0 1-3.598 1.986.311.311 0 0 1-.149.039.311.311 0 0 1-.149-.039c-.088-.099 0-.32.133-.474a.583.583 0 0 1 .276-.155 8.349 8.349 0 0 0 3.156-1.666l-2.207-1.876c-2.097 1.467-3.311 1.799-4.017 1.103-.707-.695-.32-2.207 1.103-3.52l-.298-.243c-.165-.11-.088-.276.055-.441Zm2.737 2.737-2.207-1.799c-1.103 1.103-1.435 2.207-.883 2.659.552.453 1.236.387 3.09-.86Zm1.016-.089 2.207 1.799c1.258-1.181 1.6-2.306.982-2.792-.618-.486-1.358-.298-3.19.993ZM131.67 116.694c-20.229 11.61-54.076-17.238-73.643-3.553a109.76 109.76 0 0 1 7.306-23.672c19.865.452 45.248 17.48 61.106 6.323l5.231 20.902Z" fill="#7B61FF"/><path d="M106.067 108.484c-.066 3.509-4.988 5.01-11.036 3.112-6.048-1.899-10.197-5.695-9.303-8.829.894-3.134 5.937-4.282 11.19-2.792 5.253 1.49 9.237 5.043 9.149 8.509ZM79.106 100.67c-.254.74-1.666 1.104-3.134.817-1.468-.287-2.395-1.016-2.108-1.8.287-.783 1.655-1.213 3.1-.915 1.447.298 2.407 1.18 2.142 1.898ZM117.533 109.333c.1.872-.927 1.601-2.328 1.523-1.402-.077-2.616-.883-2.671-1.721-.055-.839 1.037-1.391 2.395-1.358 1.357.033 2.494.696 2.604 1.556ZM67.143 89.557a111.59 111.59 0 0 0-7.306 22.458c-.605.363-1.19.757-1.755 1.181a109.341 109.341 0 0 1 7.306-23.672c.541-.044 1.148-.011 1.755.033ZM131.67 116.694c-.606.354-1.232.671-1.876.949a8677.372 8677.372 0 0 0-4.823-20.913c.505-.288.995-.6 1.468-.938l5.231 20.902Z" fill="#37474F"/><path d="M131.35 115.403c.111.431.21.872.32 1.302-20.229 11.61-54.076-17.238-73.643-3.553.11-.596.232-1.192.364-1.777 19.678-12.438 52.995 15.616 72.959 4.028ZM126.439 95.792l.331 1.324c-16.156 11.202-42.069-6.51-61.978-6.4.177-.42.353-.84.541-1.247 19.81.452 45.214 17.48 61.106 6.323Z" fill="#37474F"/><path d="M64.494 108.781c-1.48.351-2.916.865-4.282 1.534.276-1.214.574-2.394.872-3.542 2.307-.795 3.896.32 3.41 2.008ZM128.834 113.439l.662 2.902a21.243 21.243 0 0 1-4.326 1.38c-.298-1.578 1.435-3.234 3.664-4.282ZM121.793 99.61a20.891 20.891 0 0 0 3.487-1.556c.221.972.453 1.943.674 2.914-1.932 1.048-3.863.232-4.161-1.358ZM65.466 93.486c.375-.938.761-1.843 1.103-2.737 1.354.066 2.733.198 4.139.397-.574 1.358-2.98 2.284-5.242 2.34Z" fill="#37474F"/><path d="M96.708 101.443c.254.077.453.242.43.375-.021.132 0 .265-.055.408 1.21.382 2.356.944 3.4 1.667.165.121.264.209.253.309-.011.099-.264.198-.54.132a.959.959 0 0 1-.353-.177 10.89 10.89 0 0 0-2.87-1.478l-.43 2.814c3.068 1.236 4.315 2.152 4.216 3.178-.1 1.026-2.075 1.336-4.757.563 0 .265-.077.53-.121.784-.044.253-.276.165-.563.088-.287-.077-.497-.265-.475-.397l.133-.795a15.662 15.662 0 0 1-4.613-2.395c-.133-.11-.199-.187-.188-.276.011-.088.32-.176.585-.088a.976.976 0 0 1 .364.177 13.018 13.018 0 0 0 3.973 2.152c.155-.95.31-1.899.475-2.848-3.024-1.247-4.183-2.207-3.962-3.156.22-.949 2.13-1.214 4.535-.552v-.375c0-.121.354-.188.563-.11Zm-1.103 3.686.463-2.737c-1.92-.53-3.31-.353-3.465.364-.155.717.519 1.28 3.09 2.373h-.088Zm.805.882c-.132.916-.287 1.844-.43 2.759 2.14.619 3.587.42 3.664-.353.077-.772-.497-1.335-3.145-2.406h-.089Z" fill="#7B61FF"/><path d="M127.896 254.534s43.614-4.757 59.594 39.795c.022 0-43.813.894-59.594-39.795ZM171.753 186.033s34.289-27.38 71.656 1.667c.078 0-36.506 24.235-71.656-1.667ZM81.335 73.886s35.735.96 43.736 38.681c0 0-35.48-4.106-43.736-38.681Z" fill="#37474F"/><path d="M127.388 254.456s15.672-33.108 54.209-25.018c0 0-18.463 31.485-54.209 25.018ZM151.756 73.886s7.957-35.668 47.377-36.309c0 0-11.069 34.786-47.377 36.309Z" fill="#7B61FF"/><path d="M141.216 94.203s15.848-18.927 39.73-7.074c-.022 0-17.47 17.437-39.73 7.074ZM76.148 186.166s24.6 2.152 28.551 28.506c0 .055-24.29-4.36-28.55-28.506Z" fill="#37474F"/><path d="M42.687 226.568s24.732-29.013 61.415-10.395c0 0-27.17 26.696-61.415 10.395ZM181.31 113.472s23.54 29.995-1.998 62.254c0 0-20.802-31.927 1.998-62.254Z" fill="#37474F"/><path d="M163.918 205.07a124.581 124.581 0 0 0-31.376 44.762c-.993 2.583-1.423 4.084-1.423 4.084l.099.209a.828.828 0 0 0 0 .122c20.968 48.779 25.294 79.933 25.129 101.453h-18.232c2.947-19.445-5.882-69.526-14.777-89.225-6.875-15.175-17.061-32.005-19.666-49.894l-.099-.662a76.32 76.32 0 0 1-.21-1.556 142.295 142.295 0 0 1-.817-7.957 122.783 122.783 0 0 1 7.891-54.319c7.074-18.121 12.14-29.047 14.281-39.575.055-.276.11-.552.154-.817 3.057-16.112-.805-31.706-14.898-71.16-2.053-5.76-.111-6.003 2.77-2.295 2.88 3.708 20.173 47.333 22.226 59.274 0 0 9.48-15.715 16.819-23.772 2.461-2.693 4.69-4.525 6.235-4.635 5.518-.364 4.415.464 1.258 3.94-.386.43-.816.894-1.258 1.413a146.272 146.272 0 0 0-11.19 14.82 189.727 189.727 0 0 0-3.642 5.773c-19.534 32.125-29.102 72.142-30.901 93.806-3.167 38.912 13.166 55.566 13.166 55.566s18.938-28.815 31.287-40.756c12.349-11.941 20.582-30.04 13.994-46.097-1.744-4.26-1.104-5.706.43-5.033 3.013 1.291 9.513 10.738 8.2 23.032a31.589 31.589 0 0 1-1.38 6.434 34.954 34.954 0 0 1-2.814 6.379 38.909 38.909 0 0 1-2.108 3.311s2.561-.497 6.313-.872c8.586-.861 23.407-1.104 27.987 6.622l.265.463c5.639 10.032-19.787-14.336-43.713 7.162Z" fill="#336EE1"/><path opacity=".4" d="M163.918 205.07a124.581 124.581 0 0 0-31.376 44.762c-.993 2.583-1.423 4.084-1.423 4.084l.099.209a.828.828 0 0 0 0 .122c20.968 48.779 25.294 79.933 25.129 101.453h-18.232c2.947-19.445-5.882-69.526-14.777-89.225-6.875-15.175-17.061-32.005-19.666-49.894l-.099-.662a76.32 76.32 0 0 1-.21-1.556 142.295 142.295 0 0 1-.817-7.957 122.783 122.783 0 0 1 7.891-54.319c7.074-18.121 12.14-29.047 14.281-39.575.055-.276.11-.552.154-.817 3.057-16.112-.805-31.706-14.898-71.16-2.053-5.76-.111-6.003 2.77-2.295 2.88 3.708 20.173 47.333 22.226 59.274 0 0 9.48-15.715 16.819-23.772 2.461-2.693 4.69-4.525 6.235-4.635 5.518-.364 4.415.464 1.258 3.94-.386.43-.816.894-1.258 1.413a146.272 146.272 0 0 0-11.19 14.82 189.727 189.727 0 0 0-3.642 5.773c-19.534 32.125-29.102 72.142-30.901 93.806-3.167 38.912 13.166 55.566 13.166 55.566s18.938-28.815 31.287-40.756c12.349-11.941 20.582-30.04 13.994-46.097-1.744-4.26-1.104-5.706.43-5.033 3.013 1.291 9.513 10.738 8.2 23.032a31.589 31.589 0 0 1-1.38 6.434 34.954 34.954 0 0 1-2.814 6.379 38.909 38.909 0 0 1-2.108 3.311s2.561-.497 6.313-.872c8.586-.861 23.407-1.104 27.987 6.622l.265.463c5.639 10.032-19.787-14.336-43.713 7.162Z" fill="#000"/><path d="M180.924 443.657h-75.663a13.868 13.868 0 0 1-9.805-4.064 13.855 13.855 0 0 1-4.056-9.808v-83.73s11.257-1.92 15.516-1.92c4.26 0 14.645 3.024 19.015 3.024 12.637 0 22.227-3.079 28.297-3.079 7.416 0 18.198 3.531 25.603 3.531 3.741 0 14.954-1.611 14.954-1.611v83.774a13.863 13.863 0 0 1-13.861 13.883Z" fill="#336EE1"/><path opacity=".6" d="M180.924 443.657h-75.663a13.868 13.868 0 0 1-9.805-4.064 13.855 13.855 0 0 1-4.056-9.808v-83.73s11.257-1.92 15.516-1.92c4.26 0 14.645 3.024 19.015 3.024 12.637 0 22.227-3.079 28.297-3.079 7.416 0 18.198 3.531 25.603 3.531 3.741 0 14.954-1.611 14.954-1.611v83.774a13.863 13.863 0 0 1-13.861 13.883Z" fill="#000"/><g opacity=".3" fill="#000"><path opacity=".3" d="M169.899 428.825c.095.211.202.418.32.618a.944.944 0 0 0 .806.447.95.95 0 0 0 .805-.447c.118-.2.225-.407.32-.618 1.17-2.45-3.421-2.45-2.251 0ZM107.667 407.746c.093.213.2.419.32.618a.944.944 0 0 0 .806.448.943.943 0 0 0 .805-.448c.111-.198.221-.397.32-.618 1.137-2.417-3.421-2.417-2.251 0ZM112.942 416.508a1.567 1.567 0 1 0 .002-3.135 1.567 1.567 0 0 0-.002 3.135ZM183.528 359.949a1.564 1.564 0 0 0 1.567-1.567 1.566 1.566 0 1 0-1.567 1.567ZM157.13 391.843a1.564 1.564 0 0 0 1.567-1.567 1.566 1.566 0 1 0-1.567 1.567ZM99.445 362.112a2.21 2.21 0 0 0 3.09 0 2.984 2.984 0 0 0 .751-2.958c-.408-2.207-4.172-2.207-4.591 0a3.013 3.013 0 0 0 .75 2.958ZM180.03 416.95a2.207 2.207 0 0 0 3.09 0 2.992 2.992 0 0 0 .75-2.958c-.419-2.207-4.171-2.207-4.591 0a2.992 2.992 0 0 0 .751 2.958Z"/></g><g opacity=".8"><path opacity=".8" d="M186.21 324.535H99.986c-7.174 0-12.99 5.815-12.99 12.989v98.011c0 7.174 5.816 12.989 12.99 12.989h86.224c7.174 0 12.989-5.815 12.989-12.989v-98.011c0-7.174-5.815-12.989-12.989-12.989ZM183.87 307.308h-81.556v17.227h81.556v-17.227Z" fill="#DBDBDB"/><path opacity=".8" d="M186.684 310.497H99.489v2.108h87.195v-2.108ZM186.684 314.867H99.489v2.108h87.195v-2.108ZM186.684 319.227H99.489v2.107h87.195v-2.107ZM104.61 324.601l9.623-.198 9.624-.111 19.236-.099 19.246.099 9.613.111 9.623.198-9.623.21-9.613.11-19.246.1-19.236-.1-9.624-.11-9.623-.21Z" fill="#C7C7C7"/></g><path d="M157.13 372.221h-42.908v28.252h42.908v-28.252Z" fill="#EBEBEB"/><path d="M141.89 385.619v8.718h-5.651v-4.359h-3.333v4.359h-5.65v-8.718h14.634Z" fill="#fff"/><path d="M144.439 385.63h-19.732l9.866-7.814 9.866 7.814Z" fill="#fff"/><g opacity=".4" fill="#fff"><path opacity=".4" d="m125.623 367.95-1.921 1.247 2.174-.838.817 1.379-.883.762 1.126-.365.309.53-1.192.872 1.368-.585.232.386-16.123 9.635-.707-1.181 1.258-.839-1.445.519-.298-.497.949-.684-1.104.408-.154-.242 1.512-1.214-1.888.584-.518-.86 16.123-9.635.365.618ZM162.174 380.023l-1.777-1.39 1.468 1.766-1.038 1.214-.993-.574.695.927-.408.474-1.181-.838.971 1.081-.298.353-14.071-11.952.894-1.048 1.17.905-.938-1.181.386-.452.927.662-.728-.905.177-.21 1.622 1.015-1.137-1.578.64-.761 14.082 11.952-.463.54ZM146.15 404.479l1.931-1.258-2.174.839-.828-1.368.883-.762-1.115.353-.32-.518 1.192-.872-1.357.585-.243-.398 16.123-9.623.707 1.181-1.258.828 1.445-.519.298.508-.949.673 1.115-.409.143.243-1.512 1.225 1.899-.585.507.861-16.123 9.634-.364-.618ZM109.598 392.406l1.777 1.391-1.457-1.766 1.027-1.214 1.004.574-.695-.927.397-.475 1.181.828-.971-1.082.298-.353 14.082 11.963-.894 1.049-1.181-.905.949 1.181-.386.452-.927-.673.728.905-.188.221-1.622-1.016 1.148 1.578-.651.762-14.082-11.952.463-.541Z"/></g><path d="m0 448.524 57.84-.276 57.828-.088 115.679-.188 115.679.177 57.84.099 57.828.276-57.828.265-57.84.099-115.679.188-115.679-.188-57.829-.099L0 448.524Z" fill="#263238"/><path d="M104.29 446.482c-21.598 10.231-43.206-4.955-64.814 5.276 1.913-6.732 3.822-13.28 5.727-19.644 17.58-5.011 35.16 3.84 52.752-.839 2.064 5.275 4.271 10.329 6.335 15.207Z" fill="#7B61FF"/><path d="M79.978 441.373c.375 3.311-3.311 5.683-8.145 5.098-4.834-.584-8.619-3.531-8.354-6.776.265-3.244 3.896-5.628 8.145-5.12 4.248.507 7.979 3.498 8.354 6.798ZM58.082 439.077c-.11.751-1.192 1.347-2.428 1.391-1.236.044-2.119-.497-1.975-1.258a2.472 2.472 0 0 1 2.428-1.479c1.17-.077 2.053.596 1.975 1.346ZM89.8 441.13c.176.751-.685 1.424-1.92 1.457-1.237.033-2.351-.585-2.484-1.347-.132-.761.729-1.346 1.92-1.368 1.192-.022 2.307.519 2.484 1.258ZM46.803 431.661a1756.785 1756.785 0 0 0-5.363 19.203c-.651.265-1.302.552-1.964.861 1.909-6.732 3.818-13.244 5.727-19.644.53-.155 1.07-.287 1.6-.42ZM104.29 446.482c-.651.309-1.302.596-1.965.861a703.906 703.906 0 0 1-5.97-15.682c.53-.121 1.104-.243 1.6-.386 2.064 5.275 4.271 10.33 6.335 15.207Z" fill="#37474F"/><path d="m103.893 445.533.397.916c-21.598 10.231-43.206-4.955-64.814 5.275l.364-1.269c21.354-9.833 42.698 4.856 64.053-4.922ZM97.944 431.242c.144.331.276.662.409.993-17.835 4.955-35.669-4.216-53.503 1.104.121-.398.232-.806.353-1.203 17.58-5.066 35.16 3.785 52.741-.894Z" fill="#37474F"/><path d="M46.075 448.237a37.365 37.365 0 0 0-4.293 1.391c.243-.905.497-1.81.74-2.715 2.317-.839 3.895-.1 3.553 1.324ZM101.123 444.275l.827 2.13a35.283 35.283 0 0 1-4.293 1.38c-.386-1.302 1.16-2.715 3.466-3.51ZM93.144 433.305a41.412 41.412 0 0 0 3.586-.662l.828 2.208c-2.042.595-4.017-.254-4.414-1.546ZM45.722 435.447l.74-2.627a41.738 41.738 0 0 1 3.586-.706c-.353 1.412-2.284 2.803-4.326 3.333Z" fill="#37474F"/><path d="M71.734 436.042c.21 0 .386.155.386.287v.42a8.01 8.01 0 0 1 2.858 1.037c.155.088.232.155.243.254.011.099-.176.243-.408.221a.587.587 0 0 1-.287-.111 7.033 7.033 0 0 0-2.428-.938l.066 2.87c2.527.629 3.62 1.324 3.686 2.328.066 1.004-1.412 1.711-3.564 1.501v.806c0 .132-.188.22-.42.198-.232-.022-.42-.165-.42-.298v-.816a10.1 10.1 0 0 1-3.85-1.413c-.122-.077-.177-.143-.177-.232 0-.088.21-.242.43-.209.107.004.21.039.298.099a8.38 8.38 0 0 0 3.31 1.302v-2.924c-2.482-.618-3.497-1.291-3.464-2.307.033-1.015 1.445-1.677 3.377-1.479v-.397c-.045-.132.165-.221.364-.199Zm-.287 3.863v-2.803c-1.545-.155-2.572.32-2.583 1.103-.01.784.464 1.137 2.583 1.656v.044Zm.74.706.066 2.837c1.71.176 2.792-.298 2.747-1.104-.044-.806-.64-1.192-2.814-1.733ZM134.164 456.978c-22.877 4.536-45.766-33.627-68.654-26.895A109.742 109.742 0 0 1 80 409.987c18.629 6.754 37.257 30.978 55.886 25.46-.574 7.224-1.148 14.402-1.722 21.531Z" fill="#7B61FF"/><path d="M112.523 441.019c-1.181 3.311-6.324 3.157-11.489-.595-5.165-3.753-7.846-8.653-5.992-11.345 1.854-2.693 6.996-2.208 11.488.938 4.492 3.145 7.184 7.736 5.993 11.002ZM89.48 425.006c-.486.607-1.932.475-3.234-.231-1.302-.707-1.953-1.733-1.435-2.384.52-.651 1.965-.618 3.234.121 1.27.74 1.91 1.898 1.435 2.494ZM123.117 445.489c-.176.85-1.39 1.214-2.692.695-1.303-.518-2.208-1.677-1.976-2.483.232-.805 1.424-.993 2.693-.518 1.269.474 2.152 1.445 1.975 2.306ZM81.688 410.649a110.412 110.412 0 0 0-14.104 18.949c-.7.126-1.392.288-2.075.485A110.135 110.135 0 0 1 80 409.987c.567.198 1.13.419 1.69.662ZM134.164 456.978c-.684.132-1.379.231-2.075.297.692-7.085 1.395-14.206 2.108-21.365a21.011 21.011 0 0 0 1.689-.42c-.574 7.196-1.148 14.358-1.722 21.488Z" fill="#37474F"/><path d="M134.23 455.631c0 .453-.066.894-.11 1.347-22.877 4.536-45.766-33.627-68.655-26.895l.916-1.567c22.657-5.496 45.281 31.728 67.849 27.115ZM135.886 435.447c0 .452-.066.904-.11 1.357-18.894 5.518-37.788-19.6-56.692-25.857l.916-1.005c18.629 6.799 37.257 31.022 55.886 25.505Z" fill="#37474F"/><path d="M73.025 428.052a20.218 20.218 0 0 0-4.547.078c.651-1.104 1.302-2.086 1.964-3.079 2.44-.044 3.598 1.567 2.583 3.001ZM132.52 452.983l-.298 2.957a21.599 21.599 0 0 1-4.547-.066c.232-1.6 2.395-2.615 4.845-2.891ZM130.258 437.654a20.263 20.263 0 0 0 3.807-.353l-.298 2.979c-2.163.342-3.73-1.059-3.509-2.626ZM78.84 413.838a56.838 56.838 0 0 1 1.965-2.207c1.258.496 2.527 1.103 3.786 1.688-1.016 1.071-3.587 1.159-5.75.519Z" fill="#37474F"/><path d="M105.956 431.363c.21.155.342.375.287.497-.055.121-.132.243-.187.364 1.023.75 1.928 1.65 2.681 2.671.122.165.188.276.144.375-.044.099-.309.099-.552 0a1.024 1.024 0 0 1-.276-.265 10.741 10.741 0 0 0-2.207-2.328l-1.313 2.527c2.527 2.152 3.399 3.421 2.99 4.359-.408.938-2.394.607-4.69-.982l-.364.706c-.066.11-.32.066-.563-.099-.243-.166-.386-.42-.32-.53.066-.11.243-.475.375-.706a15.485 15.485 0 0 1-3.597-3.752c-.1-.133-.144-.243-.089-.321.055-.077.342 0 .574.111a.845.845 0 0 1 .287.287 12.936 12.936 0 0 0 3.079 3.311l1.358-2.539c-2.473-2.152-3.311-3.399-2.748-4.26.562-.86 2.405-.474 4.469.927l.188-.342c.055-.187.254-.154.474-.011Zm-2.207 3.157 1.302-2.439c-1.644-1.104-3.024-1.391-3.388-.773-.364.618.011 1.358 2.108 3.212h-.022Zm.486 1.103-1.292 2.483c1.821 1.269 3.311 1.545 3.587.828.276-.717-.121-1.457-2.273-3.322l-.022.011ZM246.643 377.982c-28.296-12.724-56.593 22.988-84.878 10.275a989.084 989.084 0 0 0 6.622-20.969c23.021 4.68 46.042-17.723 69.063-15.009 3.046 8.123 6.125 16.61 9.193 25.703Z" fill="#7B61FF"/><path d="M214.363 367.873c.651 4.084-3.984 9.248-10.374 11.897-6.39 2.649-11.411.905-11.246-3.509.166-4.415 4.812-9.513 10.363-11.809 5.551-2.295 10.584-.739 11.257 3.421ZM185.625 377.872c-.11 1.015-1.501 2.207-3.112 2.472-1.611.265-2.803-.387-2.66-1.391.144-1.004 1.556-1.997 3.123-2.306 1.568-.309 2.748.209 2.649 1.225ZM227.197 363.911c.265.96-.827 1.909-2.45 2.207-1.622.298-3.101-.077-3.31-1.015-.21-.938.871-2.053 2.439-2.395 1.567-.342 3.057.243 3.321 1.203ZM170.45 367.653a1537.533 1537.533 0 0 1-6.113 21.619 29.8 29.8 0 0 1-2.572-1.026 950.412 950.412 0 0 0 6.622-20.969c.673.166 1.368.276 2.063.376ZM246.643 377.982a28.874 28.874 0 0 0-2.583-1.026 777.56 777.56 0 0 0-8.729-24.842c.706 0 1.402.099 2.097.176a748.614 748.614 0 0 1 9.215 25.692Z" fill="#37474F"/><path d="M246.058 376.271c.199.574.386 1.104.574 1.711-28.285-12.713-56.582 22.988-84.867 10.263.133-.419.276-.838.408-1.269 27.966 12.107 55.931-22.623 83.885-10.705ZM237.428 352.29c.198.508.386 1.016.585 1.534-23.352-3.189-46.716 19.865-70.068 14.833.144-.453.276-.905.42-1.358 23.021 4.68 46.042-17.723 69.063-15.009Z" fill="#37474F"/><path d="M170.34 389.272a32.109 32.109 0 0 1-5.617-1.313c.276-.983.563-1.954.85-2.947 3.024.905 5.153 2.516 4.767 4.26ZM242.306 371.725c.408 1.192.805 2.383 1.214 3.597a31.534 31.534 0 0 0-5.618-1.291c-.595-1.821 1.38-3.145 4.404-2.306ZM231.181 353.593a35.133 35.133 0 0 1 4.702 0 441.32 441.32 0 0 1 1.214 3.31c-2.671-.287-5.32-1.578-5.916-3.31ZM169.215 372.122c.287-1.015.573-2.042.849-3.079 1.554.227 3.121.345 4.691.353-.387 1.777-2.87 3.212-5.54 2.726Z" fill="#37474F"/><path d="M203.338 366.273c.265-.11.496-.055.507.121v.519a9.14 9.14 0 0 1 3.786-.585c.198 0 .32.055.331.188.011.132-.221.419-.519.541a.743.743 0 0 1-.386.066 7.595 7.595 0 0 0-3.212.419l.232 3.686c3.311-.916 4.79-.728 4.933.541.144 1.269-1.755 3.145-4.58 4.348l.066 1.026c0 .166-.231.42-.529.541-.298.122-.552.077-.563-.099-.011-.177 0-.695-.055-1.038a10.784 10.784 0 0 1-5.088.718c-.154 0-.254-.066-.254-.188 0-.121.265-.441.552-.552a.828.828 0 0 1 .408-.066 8.731 8.731 0 0 0 4.415-.53l-.199-3.774c-3.311.883-4.624.662-4.635-.684-.011-1.346 1.788-3.101 4.326-4.172v-.507c-.022-.166.188-.409.464-.519Zm-.188 5.209c-.066-1.203-.121-2.406-.188-3.609-2.03.85-3.31 2.207-3.31 3.123 0 .916.706 1.203 3.498.442v.044Zm1.004.419.232 3.642c2.207-.949 3.631-2.284 3.532-3.311-.1-1.026-.85-1.103-3.764-.331ZM231.678 461.381c-24.467-24.919-48.922 5.518-73.389-19.368 4.414-2.516 8.829-6.831 13.243-12.316 19.865 6.908 39.818-9.602 59.738 10.219l.408 21.465Z" fill="#7B61FF"/><path d="M207.465 440.545c-.85 3.874-6.014 7.207-11.532 7.913-5.518.706-8.73-2.34-7.152-6.401 1.578-4.061 6.721-7.88 11.533-8.343 4.812-.464 8.012 2.913 7.151 6.831ZM182.789 441.836a3.412 3.412 0 0 1-3.311 1.479c-1.402-.121-2.207-.993-1.7-1.832a3.771 3.771 0 0 1 3.311-1.346c1.346.066 2.108.827 1.7 1.699ZM218.744 442.068c-.099.872-1.313 1.17-2.715.806-1.401-.365-2.417-1.258-2.273-2.141.143-.883 1.346-1.402 2.704-1.027 1.357.376 2.372 1.435 2.284 2.362ZM173.375 430.271c-4.282 5.816-8.575 10.627-12.868 13.85a41.999 41.999 0 0 1-2.207-2.119c4.414-2.505 8.829-6.82 13.243-12.294.629.22 1.236.397 1.832.563ZM231.678 461.381a48.513 48.513 0 0 0-2.207-2.108v-21.056a42.206 42.206 0 0 1 1.821 1.699l.386 21.465Z" fill="#37474F"/><path d="M231.656 460.034v1.347c-24.467-24.919-48.922 5.518-73.389-19.379l.839-.486c24.19 23.385 48.37-6.07 72.55 18.518ZM231.347 439.916v1.346c-20.207-20.129-40.403-2.858-60.598-10.539l.838-1.026c19.898 6.908 39.807-9.602 59.76 10.219Z" fill="#37474F"/><path d="M166.235 446.935a35.565 35.565 0 0 1-4.856-3.443 36.827 36.827 0 0 0 1.788-1.512c2.56 1.898 3.929 3.829 3.068 4.955ZM229.471 455.013v2.936a36.5 36.5 0 0 0-4.856-3.653c.11-1.567 2.24-1.6 4.856.717ZM225.432 436.396a35.908 35.908 0 0 1 4.061 3.145v2.924c-2.317-2.052-4.138-4.491-4.061-6.069ZM170.781 433.67a64.066 64.066 0 0 0 1.788-2.318c1.328.409 2.681.729 4.051.96-.916 1.479-3.532 2.263-5.839 1.358Z" fill="#37474F"/><path d="M199.872 435.502c.232 0 .387.099.342.265-.044.165-.099.331-.143.507a5.518 5.518 0 0 1 2.958.629c.143.078.209.155.176.276a.622.622 0 0 1-.552.342.45.45 0 0 1-.309-.066 4.682 4.682 0 0 0-2.483-.596 334.935 334.935 0 0 0-1.037 3.554c2.726.121 3.741.783 3.432 1.997-.309 1.214-2.328 2.406-4.778 2.726-.1.331-.199.662-.287.993a.704.704 0 0 1-.563.354c-.265 0-.431-.089-.386-.254l.298-1.005a6.935 6.935 0 0 1-3.973-.75c-.1-.066-.155-.132-.122-.243a.784.784 0 0 1 .596-.375.42.42 0 0 1 .309.055 5.65 5.65 0 0 0 3.399.74l1.104-3.631c-2.682-.122-3.609-.685-3.179-1.965.431-1.28 2.351-2.472 4.547-2.726.055-.165.1-.32.144-.485a.62.62 0 0 1 .507-.342Zm-1.832 4.867c.343-1.104.685-2.318 1.038-3.477-1.766.21-3.156 1.104-3.454 2.009-.298.905.132 1.335 2.416 1.468Zm.585.684c-.331 1.17-.673 2.339-1.015 3.509 1.942-.231 3.399-1.103 3.653-2.019.254-.916-.287-1.369-2.638-1.49Z" fill="#7B61FF"/><path d="M378.92 36.44a26.164 26.164 0 0 1-28.428 26.025 26.164 26.164 0 0 1-13.332-5.056l-12.824 3.31 5.342-11.929a26.167 26.167 0 0 1 6.225-32.353 26.16 26.16 0 0 1 22.261-5.583A26.169 26.169 0 0 1 378.92 36.44Z" fill="#fff"/><path d="M378.92 36.44a26.34 26.34 0 0 1-3.863 13.74 31.13 31.13 0 0 1-2.074 2.97 31.325 31.325 0 0 1-2.505 2.659 26.58 26.58 0 0 1-12.747 6.555 24.99 24.99 0 0 1-3.609.453c-1.212.1-2.43.1-3.642 0a26.488 26.488 0 0 1-13.552-5.01l.331.066-12.802 3.31-.971.254.409-.927 5.297-11.952v.464a26.484 26.484 0 0 1-.828-23.385 26.37 26.37 0 0 1 17.815-14.902 26.364 26.364 0 0 1 22.687 4.97A26.27 26.27 0 0 1 378.92 36.44Zm0 0a26.213 26.213 0 0 0-10.131-20.548 26.487 26.487 0 0 0-10.661-4.867 26.188 26.188 0 0 0-11.665.342 25.7 25.7 0 0 0-10.274 5.375 26.975 26.975 0 0 0-6.909 9.27 25.882 25.882 0 0 0-2.152 11.356 26.38 26.38 0 0 0 3.013 11.135l.132.232-.11.232-5.374 11.919-.563-.663 12.835-3.189h.187l.155.11a25.745 25.745 0 0 0 13.133 5.11c1.19.094 2.385.094 3.575 0a24.137 24.137 0 0 0 3.554-.375 25.502 25.502 0 0 0 6.798-2.207 24.525 24.525 0 0 0 5.937-4.029 27.767 27.767 0 0 0 2.516-2.582 28.723 28.723 0 0 0 2.086-2.936 26.238 26.238 0 0 0 3.918-13.684Z" fill="#263238"/><path d="M342.137 40.723h-5.441v7.824h5.441v-7.824ZM350.204 36.309h-5.44v12.239h5.44v-12.24ZM358.283 31.894h-5.441v16.653h5.441V31.894ZM366.361 27.48h-5.441v21.067h5.441V27.48ZM336.696 39.388v-3.73l26.95-12.24.508.972-27.458 14.998Z" fill="#336EE1"/><path d="m364.286 25.869 2.075-3.245-3.851-.176 1.776 3.42Z" fill="#336EE1"/><g opacity=".7" fill="#fff"><path opacity=".7" d="M336.696 39.388v-3.73l26.95-12.24.508.972-27.458 14.998Z"/><path opacity=".7" d="m364.286 25.869 2.075-3.245-3.851-.176 1.776 3.42Z"/></g></svg>