<svg width="21" height="16" fill="none" xmlns="http://www.w3.org/2000/svg"><path d="M20.494 1.937a8.358 8.358 0 0 1-2.31.633A3.986 3.986 0 0 0 19.948.354a8.01 8.01 0 0 1-2.542.97 4.008 4.008 0 0 0-6.935 2.741c0 .319.027.624.093.915A11.348 11.348 0 0 1 2.3.787a4.036 4.036 0 0 0-.548 2.026c0 1.388.714 2.62 1.78 3.332a3.96 3.96 0 0 1-1.811-.494v.044a4.028 4.028 0 0 0 3.212 3.94c-.326.088-.682.131-1.051.131-.257 0-.516-.014-.76-.068.52 1.587 1.994 2.755 3.747 2.793a8.055 8.055 0 0 1-4.97 1.71c-.33 0-.645-.015-.96-.056a11.286 11.286 0 0 0 6.15 1.8c7.377 0 11.41-6.112 11.41-11.409 0-.177-.005-.348-.014-.518a7.997 7.997 0 0 0 2.01-2.081Z" fill="#333"/></svg>