<svg width="17" height="16" fill="none" xmlns="http://www.w3.org/2000/svg"><path fill-rule="evenodd" clip-rule="evenodd" d="M5.494 0h6a5 5 0 0 1 5 5v6a5 5 0 0 1-5 5h-6a5 5 0 0 1-5-5V5a5 5 0 0 1 5-5Zm6 14.5c1.93 0 3.5-1.57 3.5-3.5V5c0-1.93-1.57-3.5-3.5-3.5h-6c-1.93 0-3.5 1.57-3.5 3.5v6c0 1.93 1.57 3.5 3.5 3.5h6Z" fill="#333"/><path fill-rule="evenodd" clip-rule="evenodd" d="M4.494 8a4 4 0 1 1 8 0 4 4 0 0 1-8 0Zm1.5 0c0 1.378 1.122 2.5 2.5 2.5s2.5-1.122 2.5-2.5c0-1.379-1.122-2.5-2.5-2.5a2.503 2.503 0 0 0-2.5 2.5Z" fill="#333"/><circle cx="12.794" cy="3.7" r=".533" fill="#333"/></svg>